SplineFontDB: 3.0
FontName: ComixNo2CLM-Medium
FullName: Comix No2 CLM Medium
FamilyName: Comix No2 CLM
Weight: Medium
Copyright: Copyright (c) 2004-2022 by Maxim Iorsh (iorsh@users.sourceforge.net). Distributed under the terms of GNU General Public License version 2(http://www.gnu.org/licenses/gpl.html). \nAll rights reserved.
UComments: "Bitmap scaled 140%"
Version: 1.01
ItalicAngle: 0
UnderlinePosition: -100
UnderlineWidth: 50
Ascent: 800
Descent: 400
InvalidEm: 0
LayerCount: 2
Layer: 0 0 "Back" 1
Layer: 1 0 "Fore" 0
FSType: 0
OS2Version: 0
OS2_WeightWidthSlopeOnly: 0
OS2_UseTypoMetrics: 0
CreationTime: 1591208105
ModificationTime: 1666116268
PfmFamily: 81
TTFWeight: 500
TTFWidth: 5
LineGap: 90
VLineGap: 0
Panose: 0 0 0 0 0 0 0 0 0 0
OS2TypoAscent: 0
OS2TypoAOffset: 1
OS2TypoDescent: 0
OS2TypoDOffset: 1
OS2TypoLinegap: 0
OS2WinAscent: 0
OS2WinAOffset: 1
OS2WinDescent: 0
OS2WinDOffset: 1
HheadAscent: 0
HheadAOffset: 1
HheadDescent: 0
HheadDOffset: 1
OS2Vendor: 'PfEd'
MarkAttachClasses: 1
DEI: 91125
LangName: 1040 "" "" "Nero"
LangName: 1036 "" "" "Gras"
LangName: 1031 "" "" "Fett"
LangName: 1034 "" "" "Nigrita"
LangName: 1049 "" "" "+BB4EMQRLBEcEPQRLBDkA"
LangName: 1038 "" "" "F+AOkA-lk+APYA-v+AOkA-r"
LangName: 1033
Encoding: Custom
UnicodeInterp: none
NameList: AGL For New Fonts
DisplaySize: -96
AntiAlias: 1
FitToEm: 1
WinInfo: 0 10 5
BeginPrivate: 0
EndPrivate
Grid
-54 600 m 25
 1062 600 l 1049
EndSplineSet
BeginChars: 62 62

StartChar: .notdef
Encoding: 0 -1 0
Width: 800
VWidth: 1000
Flags: W
HStem: -100 70<170 630> 630 70<170 630>
VStem: 100 70<-30 630> 630 70<-30 630>
LayerCount: 2
Fore
SplineSet
170 630 m 1
 170 -30 l 1
 630 -30 l 1
 630 630 l 1
 170 630 l 1
100 700 m 1
 700 700 l 1
 700 -100 l 1
 100 -100 l 1
 100 700 l 1
EndSplineSet
Validated: 1
EndChar

StartChar: exclam
Encoding: 2 33 1
Width: 233
VWidth: 1000
Flags: W
HStem: -20 144<72.4479 183.552>
VStem: 56 144<-3.55211 107.552> 84.4025 99.1945<226.166 544.439> 102.445 100<249.703 708.707>
LayerCount: 2
Back
SplineSet
148.746 667 m 21
 156.497 545.037 152.292 413.284 134 270 c 1037
56 52 m 0
 56 91.7441 88.2559 124 128 124 c 0
 167.744 124 200 91.7441 200 52 c 0
 200 12.2559 167.744 -20 128 -20 c 0
 88.2559 -20 56 12.2559 56 52 c 0
EndSplineSet
Fore
SplineSet
202.445 548.666 m 0x90
 202.445 458.564 196.373 363.738 183.597 263.668 c 0
 180.102 236.29 155.046 216.907 127.668 220.403 c 0
 100.29 223.898 80.9074 248.954 84.4025 276.332 c 0xa0
 96.677 372.48 102.445 463.058 102.445 548.666 c 0
 102.445 588.086 101.222 626.453 98.8468 663.829 c 0
 97.0963 691.373 118.03 715.149 145.575 716.899 c 0
 173.119 718.65 196.895 697.716 198.645 670.171 c 0
 201.158 630.641 202.445 590.155 202.445 548.666 c 0x90
56 52 m 4xc0
 56 91.7441 88.2559 124 128 124 c 4
 167.744 124 200 91.7441 200 52 c 4
 200 12.2559 167.744 -20 128 -20 c 4
 88.2559 -20 56 12.2559 56 52 c 4xc0
EndSplineSet
Validated: 33
EndChar

StartChar: quotedbl
Encoding: 3 34 2
Width: 407
VWidth: 1000
Flags: W
VStem: 68.0029 99.9901<505.397 731.64> 268.003 99.99<505.397 731.64>
LayerCount: 2
Fore
SplineSet
311.233 421.723 m 0
 295.625 398.96 264.482 393.155 241.721 408.765 c 0
 218.958 424.373 213.153 455.516 228.763 478.277 c 0
 250.702 510.271 266.636 586.191 268.003 688.667 c 0
 268.371 716.265 291.067 738.363 318.665 737.995 c 0
 346.263 737.627 368.361 714.931 367.993 687.333 c 0
 366.528 577.472 355.246 485.904 311.233 421.723 c 0
111.233 421.723 m 0
 95.625 398.96 64.4824 393.155 41.7207 408.765 c 0
 18.958 424.373 13.1533 455.516 28.7627 478.277 c 0
 50.7021 510.271 66.6357 586.191 68.0029 688.667 c 0
 68.3711 716.265 91.0674 738.363 118.665 737.995 c 0
 146.263 737.627 168.361 714.931 167.993 687.333 c 0
 166.528 577.472 155.246 485.904 111.233 421.723 c 0
EndSplineSet
Validated: 524321
EndChar

StartChar: percent
Encoding: 4 37 3
Width: 742
VWidth: 1000
Flags: W
HStem: 5.07812 80<523.241 604.4> 215.781 80<536.488 618.167> 330.547 80<127.724 246.509> 531.547 80<187.554 252.894>
VStem: 40 140.938<432.57 512.859> 260.031 80<425.325 527.471> 439.359 80<86.6017 209.23> 622.703 80<102.693 211.939>
LayerCount: 2
Back
SplineSet
231.016 -28 m 24
 321.105 163.1 371.331 271.182 462.016 462 c 24
 501.924 545.975 519.016 606 565.016 677 c 1032
499.016 211 m 16
 478.016 177 473.016 125 488.016 88 c 8
 502.581 52.0732 541.424 38.5283 579.016 48 c 24
 629.398 60.6943 652.643 101.721 661.016 153 c 24
 666.681 187.694 658.497 216.076 631.016 238 c 24
 601.859 261.26 569.016 258 536.016 249 c 1032
132.016 496 m 16
 99.0156 499 80.5703 477.812 80.0156 451 c 24
 79.085 406.038 119.435 377.919 164.016 372 c 24
 221.438 364.376 277.7 386.723 295.016 442 c 24
 311.91 495.929 285.142 564.4 229.016 571 c 24
 176.543 577.171 139.016 531 141.016 468 c 1032
EndSplineSet
Fore
SplineSet
416.828 483.391 m 2
 454.828 563.359 472.75 626.531 523.047 704.188 c 0
 538.062 727.344 569.047 733.969 592.203 718.969 c 0
 615.359 703.953 621.984 672.969 606.984 649.812 c 0
 565.266 585.438 549.016 528.578 507.203 440.609 c 2
 276.25 -49.3281 l 2
 264.469 -74.2812 234.656 -85 209.688 -73.2188 c 0
 184.734 -61.4531 174.016 -31.6406 185.797 -6.67188 c 2
 416.828 483.391 l 2
112.536 535.352 m 1
 129.756 577.851 168.834 611.547 219.703 611.547 c 0
 292.735 611.547 340.031 546.569 340.031 475.5 c 0
 340.031 380 262.391 330.547 185.656 330.547 c 0
 109.537 330.547 40 374.93 40 449.484 c 0
 40 493.411 69.0922 529.245 112.536 535.352 c 1
127.323 430.403 m 1
 138.985 417.872 160.328 410.547 185.656 410.547 c 0
 227.359 410.547 260.031 432.516 260.031 475.5 c 0
 260.031 502.398 246.376 531.547 219.703 531.547 c 0
 194.349 531.547 180.938 504.01 180.938 472.828 c 0
 180.938 438.634 155 422 127.323 430.403 c 1
496.048 250.891 m 1
 497.775 287.311 545.179 295.781 578.938 295.781 c 0
 650.859 295.781 702.703 238.984 702.703 172.766 c 0
 702.703 103.219 660.297 5.07812 555.812 5.07812 c 0
 483.55 5.07812 439.359 60.6653 439.359 136.203 c 0
 439.359 169.578 447.312 203.406 464.984 232.016 c 0
 471.981 243.344 483.716 249.962 496.048 250.891 c 1
538.977 209.099 m 1
 538.672 202.539 536.743 195.964 533.047 189.984 c 0
 525.062 177.062 519.359 156.016 519.359 136.203 c 0
 519.359 107.555 527.556 85.0781 555.812 85.0781 c 0
 599.359 85.0781 622.703 128.188 622.703 172.766 c 0
 622.703 195.969 605.875 215.781 578.938 215.781 c 0
 568.995 215.781 552.099 210.084 538.977 209.099 c 1
EndSplineSet
Validated: 33
EndChar

StartChar: parenleft
Encoding: 6 40 4
Width: 340
VWidth: 1000
Flags: W
VStem: 30 100<137.32 454.085>
LayerCount: 2
Back
SplineSet
284 706 m 16
 184 636 98.9035 481.227 94 310 c 24
 89.2441 143.926 148 28 256 -84 c 1032
EndSplineSet
Fore
SplineSet
298.941 665.038 m 4
 211.265 603.664 130 462.31 130 291.478 c 0
 130 148.787 179.812 52.8018 278.26 -49.293 c 0
 297.418 -69.1611 296.843 -100.834 276.975 -119.992 c 0
 257.107 -139.15 225.434 -138.574 206.275 -118.707 c 0
 96.4443 -4.80762 30 122.233 30 291.478 c 0
 30 493.704 120.788 662.397 241.595 746.962 c 0
 264.205 762.789 295.402 757.284 311.229 734.673 c 0
 327.057 712.062 321.552 680.866 298.941 665.038 c 4
EndSplineSet
Validated: 524321
EndChar

StartChar: parenright
Encoding: 7 41 5
Width: 340
VWidth: 1000
Flags: W
VStem: 220.266 100<167.92 484.685>
LayerCount: 2
Fore
SplineSet
51.3242 -43.0332 m 4
 139.001 18.3399 220.266 159.695 220.266 330.527 c 0
 220.266 473.218 170.454 569.203 72.0059 671.298 c 0
 52.8477 691.166 53.4229 722.839 73.291 741.997 c 0
 93.1582 761.155 124.832 760.579 143.99 740.712 c 0
 253.821 626.812 320.266 499.771 320.266 330.527 c 0
 320.266 128.301 229.478 -40.3926 108.671 -124.957 c 0
 86.0605 -140.784 54.8633 -135.279 39.0361 -112.668 c 0
 23.209 -90.0576 28.7139 -58.8613 51.3242 -43.0332 c 4
EndSplineSet
Validated: 524321
EndChar

StartChar: asterisk
Encoding: 8 42 6
Width: 577
VWidth: 1000
Flags: W
LayerCount: 2
Back
SplineSet
319 303 m 25
 432 146 l 1049
111 356 m 25
 315 309 l 25
 528 355 l 1049
302 515 m 25
 315 321 l 25
 190 147 l 1049
EndSplineSet
Fore
SplineSet
330.82 370.267 m 1
 486.444 403.875 l 2
 513.429 409.703 540.054 392.531 545.882 365.562 c 0
 551.71 338.578 534.538 311.953 507.569 306.125 c 2
 368.908 276.18 l 1
 441.585 175.203 l 2
 457.71 152.812 452.616 121.547 430.21 105.422 c 0
 407.819 89.2969 376.554 94.3906 360.429 116.797 c 2
 279.576 229.132 l 1
 199.616 117.828 l 2
 183.507 95.4062 152.257 90.2969 129.835 106.391 c 0
 107.413 122.5 102.304 153.75 118.397 176.172 c 2
 192.165 278.856 l 1
 68.7881 307.281 l 2
 41.8818 313.469 25.085 340.328 31.2881 367.219 c 0
 37.4756 394.125 64.335 410.922 91.2256 404.719 c 2
 230.429 372.657 l 1
 221.116 511.656 l 2
 219.272 539.188 240.132 563.047 267.663 564.891 c 0
 295.194 566.734 319.054 545.875 320.897 518.344 c 2
 330.82 370.267 l 1
EndSplineSet
Validated: 33
EndChar

StartChar: plus
Encoding: 9 43 7
Width: 582
VWidth: 1000
Flags: W
HStem: 248.557 100<39.9908 243.224 344.109 544.702>
VStem: 241.891 99.968<48.425 247.769 348.557 555.747>
LayerCount: 2
Fore
SplineSet
344.109 348.167 m 1
 396.44 348.227 448.614 348.605 500.688 349.984 c 0
 528.281 350.703 551.25 328.906 551.984 301.312 c 0
 552.719 273.734 530.906 250.75 503.312 250.016 c 0
 450.159 248.612 396.801 247.821 343.226 247.769 c 1
 342.267 194.529 340.504 141.059 337.812 87.3281 c 0
 336.438 59.7656 312.938 38.5156 285.375 39.8906 c 0
 257.812 41.2812 236.562 64.7656 237.938 92.3281 c 0
 240.555 144.586 242.279 196.652 243.224 248.557 c 1
 188.239 249.492 133.009 251.282 77.5 254.062 c 0
 49.9375 255.438 28.6875 278.938 30.0625 306.5 c 0
 31.4375 334.062 54.9375 355.312 82.5 353.938 c 0
 136.564 351.23 190.422 349.478 244.108 348.557 c 1
 244.097 402.692 243.318 456.658 241.891 510.516 c 0
 241.172 538.109 262.969 561.094 290.562 561.812 c 0
 318.156 562.547 341.125 540.734 341.859 513.156 c 0
 343.302 458.503 344.098 403.252 344.109 348.167 c 1
EndSplineSet
Validated: 33
EndChar

StartChar: one
Encoding: 15 49 8
Width: 402
VWidth: 1000
Flags: W
VStem: 225 100<2.75973 330.728> 257.547 114.984<508.971 634.259>
LayerCount: 2
Back
SplineSet
80 231 m 16
 188.769 329.698 276.358 434.451 336 571 c 8
 340.246 580.723 335 591 328 597 c 9
 313.988 469.615 290 314.131 290 191 c 0
 290 136.377 290 80 304 35 c 1032
EndSplineSet
Fore
SplineSet
257.547 552.854 m 1x40
 262.296 592.3 258.631 629.295 294.625 643.5 c 4
 335.797 659.783 372.531 619.566 372.531 578.297 c 0x40
 372.531 560.262 360.745 538.397 354.95 524.924 c 1
 341.31 411.945 325 288.444 325 191 c 0
 325 136.422 326.172 83.8125 336.75 49.8594 c 0
 344.938 23.5 330.203 -4.54688 303.859 -12.75 c 0
 277.5 -20.9375 249.453 -6.20312 241.25 20.1406 c 0
 223.844 76.125 225 136.219 225 191 c 0x80
 225 235.853 227.947 283.973 232.374 332.957 c 1
 191.875 283.544 146.971 237.87 98.5938 193.969 c 0
 78.1562 175.422 46.5156 176.969 27.9688 197.406 c 0
 9.42188 217.844 10.9688 249.484 31.4062 268.031 c 0
 126.437 354.255 202.857 442.359 257.547 552.854 c 1x40
EndSplineSet
Validated: 33
EndChar

StartChar: two
Encoding: 16 50 9
Width: 556
VWidth: 1000
Flags: W
HStem: -17.5205 100<180.881 553.007> 547.491 100<177.974 306.512>
VStem: 51.4736 100<423.462 521.507> 358 100<351.793 495.574>
LayerCount: 2
Back
SplineSet
165 370 m 16
 130.018 392.92 101.474 417.34 101.474 469.53 c 0
 101.474 534.063 164.574 597.491 231.783 597.491 c 0
 354 597.491 408 493 408 416 c 0
 408 309 281.472 228.09 195 169 c 8
 144.639 134.587 84 90 80 63 c 1
 202 29 371 28 513 38 c 1032
EndSplineSet
Fore
SplineSet
51.4736 469.53 m 0
 51.4736 561.332 135.914 647.491 231.783 647.491 c 0
 388.178 647.491 458 513.479 458 416 c 0
 458 273.816 306.162 184.402 223.209 127.718 c 0
 208.175 117.444 192.455 105.474 178.212 94.0352 c 1
 235.044 85.9707 298.554 82.4795 361.991 82.4795 c 0
 412.134 82.4795 462.317 84.5547 509.487 87.877 c 0
 537.02 89.8154 560.938 69.0439 562.877 41.5127 c 0
 564.815 13.9805 544.044 -9.9375 516.512 -11.877 c 0
 467.301 -15.3418 414.884 -17.5205 361.991 -17.5205 c 0
 258.978 -17.5205 154.453 -9.6543 66.5771 14.835 c 0
 41.1504 21.9219 26.9715 44.1742 30.54 70.3271 c 0
 38 125 118.871 177.538 166.791 210.282 c 0
 260.615 274.396 358 346.594 358 416 c 0
 358 472.095 320.417 547.491 231.783 547.491 c 0
 191.185 547.491 151.474 504.34 151.474 469.53 c 0
 151.474 437 171 427 192.401 411.822 c 0
 214.913 395.856 221.948 365.685 206.823 342.599 c 0
 191.697 319.513 160.685 313.052 137.599 328.177 c 0
 94.8329 356.194 51.4736 398.797 51.4736 469.53 c 0
EndSplineSet
Validated: 33
EndChar

StartChar: three
Encoding: 17 51 10
Width: 639
VWidth: 1000
Flags: W
HStem: -15.125 100<187.427 431.054> 550.219 100<234.677 352.741>
VStem: 97.4219 98.5621<428.842 513.284> 358.328 100<455.317 544.635> 502.734 100<155.627 295.103>
LayerCount: 2
Back
SplineSet
218.7 472.825 m 16
 229.563 536.19 291.315 600.22 375.156 600.22 c 0
 435.366 600.22 480.33 561.226 480.33 504.704 c 0
 480.33 443.678 429 391 353.6 387.325 c 1
 375.843 394.276 397.265 397.93 419.399 397.93 c 0
 515.467 397.93 624.731 337.062 624.731 230.656 c 0
 624.731 130.229 527.894 34.875 425.8 34.875 c 8
 312.525 34.875 213 53 151 128.925 c 1032
EndSplineSet
Fore
SplineSet
317.407 446.115 m 1
 344.502 458.607 358.328 482.205 358.328 504.703 c 0
 358.328 532.004 337.326 550.219 303.156 550.219 c 0
 244.5 550.219 202.766 503.984 195.984 464.375 c 0
 191.312 437.172 165.453 418.875 138.25 423.547 c 0
 111.047 428.203 92.75 454.062 97.4219 481.266 c 0
 112.203 567.5 193.516 650.219 303.156 650.219 c 0
 394.653 650.219 458.328 585.273 458.328 504.703 c 0
 458.328 478.55 452.059 454.029 440.802 432.243 c 1
 525.838 403.718 602.734 336.365 602.734 230.656 c 0
 602.734 102.75 484.312 -15.125 353.797 -15.125 c 0
 237.312 -15.125 117.656 2.53125 40.2656 97.2969 c 0
 22.8125 118.672 26 150.203 47.375 167.656 c 0
 68.75 185.109 100.266 181.922 117.734 160.547 c 0
 164.375 103.422 244.25 84.875 353.797 84.875 c 0
 429.484 84.875 502.734 159.891 502.734 230.656 c 0
 502.734 299.5 427.667 348 340.67 348 c 1
 311.667 340.333 243.29 317.151 232.375 378.578 c 0
 223.777 426.966 268.333 440.667 317.407 446.115 c 1
EndSplineSet
Validated: 33
EndChar

StartChar: four
Encoding: 18 52 11
Width: 545
VWidth: 1000
Flags: W
VStem: 390.143 100.81<298.095 449.208>
LayerCount: 2
Back
SplineSet
453.38 406.16 m 16
 445 343 453.626 287.08 459.26 224.86 c 24
 465.999 150.442 467.63 108.289 472.98 33.7598 c 1048
374.98 598.24 m 16
 292 474 181.289 376.129 80 274.84 c 9
 192.843 267.317 290.839 258.208 399.48 247.4 c 1048
EndSplineSet
Fore
SplineSet
390.143 297.383 m 1
 387.165 336.054 386.669 373.916 391.812 412.734 c 0
 395.438 440.094 420.594 459.359 447.953 455.719 c 0
 475.312 452.094 494.578 426.938 490.953 399.578 c 0
 483.078 340.506 491.32 292.742 497.062 229.375 c 0
 503.891 153.828 505.562 111.062 510.859 37.3438 c 0
 512.828 9.8125 492.094 -14.1406 464.562 -16.1094 c 0
 437.031 -18.0938 413.078 2.65625 411.109 30.1875 c 0
 406.255 97.8232 404.462 138.212 399.351 198.812 c 1
 393.994 197.503 388.329 197.063 382.531 197.641 c 0
 274.062 208.438 176.75 217.484 64.6719 224.953 c 0
 22.6544 227.734 0.801833 278.331 32.6406 310.203 c 4
 135.469 413.016 243.109 508.781 321.406 626.016 c 0
 336.734 648.969 367.797 655.141 390.75 639.812 c 0
 413.703 624.484 419.891 593.422 404.562 570.469 c 0
 339.312 472.781 259.578 392.406 181.922 316.531 c 1
 251.772 310.857 318.808 304.479 390.143 297.383 c 1
EndSplineSet
Validated: 33
EndChar

StartChar: five
Encoding: 19 53 12
Width: 561
VWidth: 1000
Flags: W
HStem: -16.3086 100<195.987 355.038> 360.04 100<187.146 338.839> 546.725 100<242.223 524.207>
VStem: 401.78 99.999<130.12 291.663>
LayerCount: 2
Back
SplineSet
513.16 594.28 m 16
 471.021 597.22 440.418 598.5 394.58 592.32 c 16
 307.36 580.56 242.68 566.84 168.2 547.24 c 1
 158.4 484.52 163.3 422.78 174.08 363.98 c 1
 205.44 388.48 249.505 410.04 304.42 410.04 c 0
 414 410.04 482.78 296.912 482.78 204.24 c 8
 482.78 110.19 404.949 31.9709 312.26 33.7197 c 0
 227.088 35.3275 155.034 84.4521 112 149 c 1032
EndSplineSet
Fore
SplineSet
426.366 546.725 m 0
 360 546.725 250.393 524.057 182.971 507.344 c 1
 181.454 486.054 181.623 464.742 183.104 443.444 c 1
 209.709 453.547 239.952 460.04 273.42 460.04 c 0
 418.316 460.04 501.78 316.725 501.779 204.24 c 0
 501.78 84.4492 404.086 -16.3086 284.309 -16.3086 c 0
 181.681 -16.3086 89.4298 46.2211 39.3984 121.264 c 0
 24.0879 144.229 30.2998 175.292 53.2637 190.602 c 0
 76.2285 205.912 107.292 199.7 122.602 176.736 c 0
 158.324 123.158 220.332 83.6914 284.309 83.6914 c 4
 347.557 83.6914 401.78 138.384 401.78 204.24 c 0
 401.78 278.985 346.433 360.04 273.42 360.04 c 0
 231.98 360.04 198.717 343.997 173.862 324.579 c 0
 142.938 300.418 100.466 319.151 93.8994 354.963 c 0
 82.2964 418.258 77.208 487.181 87.7998 554.959 c 0
 91.0156 575.54 104.33 590.292 124.476 595.594 c 0
 212.987 618.886 344 646.725 426.366 646.725 c 0
 446.229 646.725 465.071 645.594 485.64 644.159 c 0
 513.173 642.238 533.96 618.333 532.039 590.8 c 0
 530.118 563.268 506.213 542.48 478.68 544.401 c 0
 458.699 545.795 442.334 546.725 426.366 546.725 c 0
EndSplineSet
Validated: 33
EndChar

StartChar: six
Encoding: 20 54 13
Width: 660
VWidth: 1000
Flags: W
HStem: -16.1719 100<213.525 440.387> 295.5 100<269.711 484.696> 550.125 100<341.568 517.414>
VStem: 28.1562 168.016<139.868 237.28> 522.75 100<147.235 258.167>
LayerCount: 2
Back
SplineSet
477.448 600.118 m 0
 305.341 600.118 191.523 503.942 125.992 394.02 c 0
 96.0336 343.767 82.1513 300.474 82.1513 250.216 c 0
 82.1513 114.639 192.908 33.8313 324.135 33.8313 c 0
 465 33.8313 576.758 116 576.758 189 c 0
 576.758 289 501 345.503 391 345.503 c 0
 269.519 345.503 150.169 279.686 150.169 182.662 c 1024
EndSplineSet
Fore
SplineSet
131.231 286.458 m 1
 185.127 357.949 292.069 395.5 387 395.5 c 0
 519.375 395.5 622.75 321.141 622.75 189 c 0
 622.75 58 446.439 -16.1719 320.141 -16.1719 c 0
 166.391 -16.1719 28.1562 82.6406 28.1562 250.219 c 0
 28.1562 310.141 46.2031 364.531 79.0469 419.625 c 0
 150.953 540.25 280.375 650.125 473.453 650.125 c 0
 501.047 650.125 523.453 627.719 523.453 600.125 c 0
 523.453 572.516 501.047 550.125 473.453 550.125 c 0
 322.859 550.125 224.312 468.016 164.938 368.422 c 0
 146.358 337.246 135.928 312.284 131.231 286.458 c 1
171.346 139.456 m 1
 205.874 103.92 258.585 83.8281 320.141 83.8281 c 0
 421.68 83.8281 522.75 142.889 522.75 189 c 0
 522.75 253.75 477.5 295.5 387 295.5 c 0
 274.344 295.5 196.172 236.219 196.172 182.656 c 0
 196.172 164.238 186.189 148.132 171.346 139.456 c 1
EndSplineSet
Validated: 1
EndChar

StartChar: seven
Encoding: 21 55 14
Width: 591
VWidth: 1000
Flags: W
HStem: 167.516 98.968<92.6641 275.221> 540.671 91.313<-3.72263 483.441>
VStem: 319.312 98.563<-8.97952 146.974>
LayerCount: 2
Back
SplineSet
419 266 m 20
 325 242 265 230 175 217 c 1036
80 588 m 28
 264.08 585.66 381 587 552 582 c 12
 571.054 581.443 585.263 557.178 577 540 c 20
 539 461 514.217 400.91 485 320 c 4
 446 212 425 140 407 35 c 1036
EndSplineSet
Fore
SplineSet
483.441 540.671 m 1
 346 535 214.569 535.797 40.9531 538 c 0
 13.3594 538.359 -8.75 561.031 -8.40625 588.641 c 0
 -8.04688 616.234 14.625 638.344 42.2344 638 c 0
 225.672 635.672 343.016 637.016 515.047 631.984 c 0
 574.878 630.236 606.813 566.666 580 510 c 4
 542.61 432.266 522.469 382.922 493.625 303.016 c 0
 455.016 196.125 435.422 128.891 417.875 26.5469 c 0
 413.219 -0.65625 387.344 -18.9375 360.141 -14.2812 c 0
 332.938 -9.625 314.656 16.25 319.312 43.4531 c 0
 329.79 104.588 341.541 155.76 356.954 208.543 c 1
 280.865 189.966 222.884 178.952 143.734 167.516 c 0
 116.422 163.562 91.0469 182.531 87.1094 209.859 c 0
 83.1562 237.172 102.125 262.547 129.453 266.484 c 0
 218.297 279.312 275.203 290.703 368.219 314.453 c 0
 376.159 316.479 384.144 316.48 391.624 314.779 c 1
 399.562 336.984 l 0
 426.508 411.613 450.029 470.268 483.441 540.671 c 1
EndSplineSet
Validated: 33
EndChar

StartChar: eight
Encoding: 22 56 15
Width: 639
VWidth: 1000
Flags: W
HStem: -13.5312 100<178.206 466.969> 552.609 100<258.085 430.776>
VStem: 496.391 100<114.377 195.668>
LayerCount: 2
Back
SplineSet
208.754 560.003 m 16
 161.489 557.855 115.175 529.718 115.175 490.97 c 0
 115.175 449.745 200.643 411.974 249 392 c 8
 344.966 352.362 409.321 317.361 477.134 254.768 c 8
 511.697 222.865 541.394 192.397 541.394 152.707 c 8
 541.394 49.3594 392.527 36.0123 303.254 36.4727 c 0
 201 37 79.9997 70.0009 79.9997 166.995 c 0
 79.9997 232.474 173.413 288.999 225.764 322.808 c 0
 285.434 361.345 343.241 377.826 418.544 412.582 c 16
 468.61 435.69 519.641 460.094 519.641 491.835 c 0
 519.641 566 389.21 602.611 296.462 602.611 c 0
 219.09 602.611 166.557 589.217 129.373 536.378 c 1032
EndSplineSet
Fore
SplineSet
263 551.297 m 1
 259.028 528.75 239.846 511.141 216.031 510.047 c 0
 195.22 509.113 179.006 499.605 172.782 493.811 c 1
 197.997 473.683 268.506 439.47 314.197 420.6 c 1
 357.822 438.676 444.508 474.829 473.436 497.302 c 1
 448 532 361.926 552.609 301.469 552.609 c 0
 287.007 552.609 274.288 552.208 263 551.297 c 1
84.834 543.197 m 1
 121 634 225.977 652.609 301.469 652.609 c 0
 409.366 652.609 574.641 610.236 574.641 491.828 c 0
 574.641 413.825 476.819 382.218 428.334 359.854 c 1
 495.69 316.188 596.391 236 596.391 152.703 c 0
 596.391 97.9375 566.594 57.6875 530.734 33.9375 c 0
 464.047 -10.2656 375.156 -13.5312 312.578 -13.5312 c 0
 181.812 -13.5312 35 32 35 167 c 0
 35 266.885 149.448 330.517 197.311 360.772 c 1
 157.503 377.288 108.276 402.325 82.1719 447.812 c 0
 66.2017 475.576 68.5703 515.497 84.834 543.197 c 1
313.236 310.701 m 1
 249.594 281.368 138 208 135 167 c 4
 130.835 110.073 236.037 86.4688 312.578 86.4688 c 0
 368.266 86.4688 443.297 95.9531 475.5 117.297 c 0
 491.125 127.641 496.391 136.906 496.391 152.703 c 0
 496.391 197 353.692 290.543 313.236 310.701 c 1
EndSplineSet
Validated: 33
EndChar

StartChar: nine
Encoding: 23 57 16
Width: 600
VWidth: 1000
Flags: W
HStem: -15 100<191.711 393.227> 265.922 100<214.475 371.149> 548.266 100<241.072 369.772>
VStem: 80.9375 100<398.602 499.05> 462.484 100<151.335 327.58>
LayerCount: 2
Back
SplineSet
425 514 m 16
 418.172 556.676 396.278 598.273 353.068 598.273 c 0
 246.084 598.273 131.931 539.002 131.931 451.295 c 0
 131.931 369.246 212.348 315.914 298.662 315.914 c 0
 384.372 315.914 461.009 383.996 461.009 459.315 c 0
 461.009 491.633 448.345 523.501 427 546 c 1
 463.937 456.841 513.484 356.931 513.484 243.862 c 0
 513.484 109.818 417.658 35 289 35 c 8
 212.663 35 124 85 80 115 c 1032
EndSplineSet
Fore
SplineSet
448.995 590.713 m 1
 484.091 571.574 504.964 516.959 509.041 478.003 c 1
 536.758 409.776 562.484 331.794 562.484 243.859 c 0
 562.484 77.3594 438.75 -15 288 -15 c 0
 191.047 -15 98.8438 40.9531 50.8281 73.6875 c 0
 28.0312 89.2344 22.1406 120.359 37.6875 143.172 c 0
 53.2344 165.969 84.3594 171.859 107.172 156.312 c 0
 147.797 128.609 232.797 85 288 85 c 0
 391.172 85 462.484 139.641 462.484 243.859 c 0
 462.484 272.759 458.626 301.19 452.212 329.264 c 1
 412.259 290.351 355.979 265.922 297.656 265.922 c 0
 193.547 265.922 80.9375 333 80.9375 451.297 c 0
 80.9375 587.314 244.038 648.266 352.062 648.266 c 0
 399.231 648.266 430.185 621.511 448.995 590.713 c 1
404.546 467.936 m 1
 389.205 474.435 377.447 488.445 374.625 506.094 c 0
 371.11 528.325 358.667 548.266 352.062 548.266 c 0
 267.203 548.266 180.938 504.23 180.938 451.297 c 0
 180.938 405.484 229.625 365.922 297.656 365.922 c 0
 351.737 365.922 419 412 404.546 467.936 c 1
EndSplineSet
Validated: 33
EndChar

StartChar: semicolon
Encoding: 25 59 17
Width: 233
VWidth: 1000
Flags: W
HStem: 372 144<72.4479 183.552>
VStem: 56 139.071<-3.14947 107.554 388.448 499.552>
LayerCount: 2
Back
SplineSet
30 424 m 0
 30 457.12 56.8799 484 90 484 c 0
 123.12 484 150 457.12 150 424 c 0
 150 390.88 123.12 364 90 364 c 0
 56.8799 364 30 390.88 30 424 c 0
30 24 m 0
 30 57.1201 56.8799 84 90 84 c 0
 123.12 84 150 57.1201 150 24 c 0
 150 -9.12012 123.12 -36 90 -36 c 0
 56.8799 -36 30 -9.12012 30 24 c 0
EndSplineSet
Fore
SplineSet
56 444 m 4
 56 483.744 88.2559 516 128 516 c 4
 167.744 516 200 483.744 200 444 c 4
 200 404.256 167.744 372 128 372 c 4
 88.2559 372 56 404.256 56 444 c 4
195.071 25.7749 m 1
 195.254 20.2246 195.344 14.6959 195.344 9.1875 c 0
 195.344 -68.4219 177.109 -140.797 147.828 -207.984 c 0
 136.812 -233.281 107.328 -244.859 82.0156 -233.828 c 0
 56.7188 -222.812 45.1406 -193.328 56.1719 -168.016 c 0
 78.2333 -117.374 91.9461 -66.0214 94.7908 -11.8945 c 1
 71.7444 0.113796 56 24.2261 56 52 c 0
 56 91.75 88.25 124 128 124 c 0
 167.75 124 200 91.75 200 52 c 0
 200 42.748 198.253 33.9022 195.071 25.7749 c 1
EndSplineSet
Validated: 33
EndChar

StartChar: less
Encoding: 26 60 18
Width: 428
VWidth: 1000
Flags: W
LayerCount: 2
Back
SplineSet
394 512 m 16
 308 440 236 386 150 298 c 1
 228 236 312 174 418 102 c 1032
EndSplineSet
Fore
SplineSet
155.579 302.343 m 1
 220.287 252.428 290.872 201.26 376.112 143.361 c 0
 398.943 127.853 404.887 96.7373 389.379 73.9062 c 0
 373.871 51.0742 342.755 45.1309 319.924 60.6396 c 0
 213.055 133.229 127.893 196.075 48.9062 258.858 c 0
 37.2549 268.12 31.0479 280.016 30.1162 294.87 c 0
 29.1846 309.724 33.8564 322.303 44.2588 332.946 c 0
 133.011 423.763 207.257 479.456 291.921 550.338 c 0
 313.084 568.056 344.639 565.26 362.355 544.097 c 0
 380.073 522.935 377.277 491.38 356.115 473.662 c 0
 283.026 412.472 222.252 365.847 155.579 302.343 c 1
EndSplineSet
Validated: 524321
EndChar

StartChar: equal
Encoding: 27 61 19
Width: 582
VWidth: 1000
Flags: W
HStem: 147.769 100<40.6087 544.18> 347.769 100<40.6087 544.18>
LayerCount: 2
Back
SplineSet
90 365 m 2
 67.9199 365 50 347.08 50 325 c 2
 50 275 l 2
 50 252.92 67.9199 235 90 235 c 2
 550 235 l 2
 572.08 235 590 252.92 590 275 c 2
 590 325 l 2
 590 347.08 572.08 365 550 365 c 2
 90 365 l 2
EndSplineSet
Fore
SplineSet
337.552 447.769 m 4
 392.072 447.769 446.438 448.552 500.683 449.982 c 4
 528.273 450.71 551.256 428.908 551.983 401.318 c 4
 552.711 373.728 530.91 350.745 503.319 350.018 c 4
 448.275 348.565 393.03 347.769 337.552 347.769 c 4
 251.47 347.769 164.825 349.688 77.499 354.062 c 4
 49.9336 355.443 28.6826 378.936 30.0635 406.502 c 4
 31.4443 434.066 54.9375 455.318 82.5029 453.938 c 4
 167.986 449.655 252.956 447.769 337.552 447.769 c 4
337.552 247.769 m 4
 392.072 247.769 446.438 248.552 500.683 249.982 c 4
 528.273 250.71 551.256 228.908 551.983 201.318 c 4
 552.711 173.728 530.91 150.745 503.319 150.018 c 4
 448.275 148.565 393.03 147.769 337.552 147.769 c 4
 251.47 147.769 164.825 149.688 77.499 154.062 c 4
 49.9336 155.443 28.6826 178.936 30.0635 206.502 c 4
 31.4443 234.066 54.9375 255.318 82.5029 253.938 c 4
 167.986 249.655 252.956 247.769 337.552 247.769 c 4
EndSplineSet
Validated: 524321
EndChar

StartChar: greater
Encoding: 28 62 20
Width: 428
VWidth: 1000
Flags: W
LayerCount: 2
Fore
SplineSet
272.438 311.653 m 1
 207.729 361.568 137.145 412.736 51.9043 470.635 c 0
 29.0732 486.144 23.1299 517.259 38.6377 540.09 c 0
 54.1455 562.922 85.2617 568.865 108.093 553.356 c 0
 214.962 480.767 300.124 417.921 379.11 355.138 c 0
 390.762 345.876 396.969 333.98 397.9 319.126 c 0
 398.832 304.272 394.16 291.693 383.758 281.05 c 0
 295.006 190.233 220.76 134.54 136.096 63.6582 c 0
 114.933 45.9404 83.3779 48.7363 65.6611 69.8994 c 0
 47.9434 91.0615 50.7393 122.616 71.9014 140.334 c 0
 144.99 201.524 205.765 248.149 272.438 311.653 c 1
EndSplineSet
Validated: 524321
EndChar

StartChar: bracketright
Encoding: 32 93 21
Width: 334
VWidth: 1000
Flags: W
HStem: -139.989 98.8435<37.9101 203.498> 656.745 101.234<44.5637 196.514>
VStem: 30.0137 273.984<-134.034 -50.0114 663.905 743.627> 203.498 100.5<-41.1455 656.745>
LayerCount: 2
Fore
SplineSet
203.498 -41.1455 m 1xd0
 196.514 656.745 l 1
 87.248 654.011 l 2
 59.6543 653.323 36.7012 675.151 36.0137 702.745 c 0
 35.3262 730.339 57.1543 753.292 84.748 753.979 c 2
 244.748 757.979 l 2
 273.951 758.714 295.701 737.698 295.998 708.495 c 2
 303.998 -89.5049 l 2xd0
 304.279 -118.146 283.779 -139.333 255.154 -139.989 c 2
 81.1543 -143.989 l 2
 53.5605 -144.63 30.6387 -122.739 30.0137 -95.1611 c 0xe0
 29.373 -67.5674 51.2637 -44.6455 78.8418 -44.0205 c 2
 203.498 -41.1455 l 1xd0
EndSplineSet
Validated: 33
EndChar

StartChar: grave
Encoding: 33 96 22
Width: 197
VWidth: 1000
Flags: W
VStem: 30.0049 99.9911<406.36 632.603>
LayerCount: 2
Back
SplineSet
94 450 m 21
 95.4209 556.484 109.136 640.076 142 688 c 1037
EndSplineSet
Fore
SplineSet
86.7646 716.277 m 0
 102.374 739.04 133.516 744.845 156.277 729.235 c 0
 179.04 713.626 184.845 682.484 169.235 659.723 c 0
 147.296 627.729 131.363 551.809 129.996 449.333 c 0
 129.627 421.735 106.931 399.636 79.333 400.005 c 0
 51.7354 400.373 29.6367 423.069 30.0049 450.667 c 0
 31.4707 560.528 42.751 652.096 86.7646 716.277 c 0
EndSplineSet
Validated: 524321
EndChar

StartChar: afii57685
Encoding: 55 1509 23
Width: 636
VWidth: 1000
Flags: W
VStem: 19.0469 99.9061<424.987 602.866> 418.25 99.906<-315.816 -102.811> 511.5 100<414.409 610.149>
LayerCount: 2
Back
SplineSet
82 559 m 16
 88 424 150 282 246 205 c 8
 407.799 75.2233 472.399 -64 481.199 -272 c 1032
322 168 m 16
 444 230 584 356 574 565 c 1032
EndSplineSet
Fore
SplineSet
295.809 217.505 m 1xc0
 402.141 274.189 511.5 377.993 511.5 543.984 c 0
 511.5 585.784 519 613 558.609 614.938 c 0
 592.972 616.619 611.5 598.679 611.5 543.984 c 0xa0
 611.5 343.034 486.238 214.273 368.676 143.882 c 1
 466.861 28.8965 511.103 -103.294 518.156 -269.891 c 0
 519.328 -297.469 497.891 -320.781 470.312 -321.953 c 0
 442.734 -323.125 419.406 -301.688 418.25 -274.109 c 0
 409.875 -76.2188 353.812 44 201.719 166 c 0
 91.5156 254.391 25.6406 408.359 19.0469 556.781 c 0
 17.8281 584.359 39.2031 607.719 66.7812 608.953 c 0
 94.3594 610.172 117.719 588.797 118.953 561.219 c 0
 125.465 414.842 197 286 295.809 217.505 c 1xc0
EndSplineSet
Validated: 33
EndChar

StartChar: afii57686
Encoding: 56 1510 24
Width: 675
VWidth: 1000
Flags: W
HStem: -4.04688 100<31.2156 380.277> 8.14062 100<33.6063 137.211 142.227 535.754>
VStem: 25.0781 99.9689<522.858 603.814>
LayerCount: 2
Back
SplineSet
405.665 349.195 m 16
 482.162 394.272 552.343 468.541 595.947 550.48 c 1032
83.0605 559.93 m 16
 81 461 362.023 328.334 417.596 296.275 c 16
 484.757 257.53 524.308 240.736 579.143 170.59 c 0
 614 126 598.697 53.8134 548.791 51.5195 c 16
 487.056 48.6846 453.562 58.4678 391.765 58.1348 c 24
 293.392 57.6053 157 37 80 50.5752 c 1032
EndSplineSet
Fore
SplineSet
359.502 381.516 m 1x60
 363.032 385.684 367.31 389.339 372.281 392.266 c 0
 439.828 432.078 504.703 500.5 543.812 573.969 c 0
 556.781 598.328 587.078 607.578 611.438 594.625 c 0
 635.797 581.656 645.047 551.359 632.094 526.984 c 0
 590.308 448.48 527.831 377.641 456.009 327.353 c 1
 510.419 296.471 557.281 269.507 610.531 201.391 c 0
 630.953 175.266 640.016 144.406 640.016 114.922 c 0
 640.016 47.6894 599 0 518.547 1 c 0
 464.307 1.67419 432.086 8.14062 384.031 8.14062 c 0x60
 314.5 7.76562 218.734 -4.04688 138.453 -4.04688 c 0
 111.938 -4.04688 86.8594 -2.8125 63.3125 1.32812 c 0
 36.1406 6.125 17.9688 32.0781 22.7656 59.25 c 0
 27.5469 86.4375 53.5 104.609 80.6875 99.8125 c 0
 95.1885 97.2656 115.391 95.9531 138.453 95.9531 c 0xa0
 209.375 95.9531 304.875 107.719 383.5 108.141 c 0
 446.541 108.141 485.969 99.1949 537.061 101.404 c 1
 560 159 419.277 232.966 384.609 252.969 c 0
 341.344 277.922 113.094 376.078 43.4219 496.219 c 0
 32.5261 515.024 25.0781 535.134 25.0781 560.969 c 0
 25.6406 588.562 48.5 610.5 76.1094 609.922 c 0
 103.703 609.344 125.625 586.484 125.047 558.891 c 0
 125.047 558.859 125.047 558.875 125.047 558.844 c 0
 125.047 520 293.752 418.615 359.502 381.516 c 1x60
EndSplineSet
Validated: 33
EndChar

StartChar: afii57687
Encoding: 57 1511 25
Width: 692
VWidth: 1000
Flags: W
HStem: 508.759 100<20.6482 451.998>
VStem: 94.0137 99.9723<-371.946 -34.9343> 103.574 100<-195.278 307.405> 572.175 100<254.724 432.889>
LayerCount: 2
Back
SplineSet
174 266 m 16
 183 72 172.733 -126.846 168 -328 c 1048
80 547.511 m 0
 254 568 490.579 568.378 594 480 c 8
 675.066 410.726 649.906 281.662 598 203 c 24
 538.073 112.179 475 108 406 22 c 1032
EndSplineSet
Fore
SplineSet
203.574 98.2266 m 0xb0
 203.574 -43.5293 197.348 -186.276 193.986 -329.176 c 0
 193.337 -356.769 170.416 -378.635 142.824 -377.986 c 0
 115.231 -377.337 93.3652 -354.416 94.0137 -326.824 c 0xd0
 97.4072 -182.606 103.574 -40.5879 103.574 98.2266 c 0
 103.574 153.918 102.586 209.092 100.054 263.683 c 0
 98.7754 291.253 120.113 314.667 147.683 315.946 c 0
 175.253 317.225 198.667 295.887 199.946 268.317 c 0
 202.568 211.814 203.574 155.099 203.574 98.2266 c 0xb0
239.899 608.759 m 0
 374.137 608.759 514.685 593.038 602.483 518.012 c 0
 653.312 474.575 672.175 413.456 672.175 356.833 c 0
 672.175 290.159 648.798 225.572 615.733 175.462 c 0
 545.139 68.4756 478.25 62.0664 420.999 -9.29004 c 0
 403.727 -30.8174 372.237 -34.2715 350.71 -16.999 c 0
 329.182 0.272461 325.729 31.7627 343.001 53.29 c 0
 423.795 153.99 483.2 156.177 532.267 230.538 c 0
 555.234 265.345 572.175 314.807 572.175 356.833 c 0
 572.175 393.213 561.64 421.375 537.517 441.988 c 0
 485.574 486.377 365.606 508.759 239.899 508.759 c 0
 178.856 508.759 117.051 504.354 61.8477 497.854 c 0
 34.4365 494.626 9.57031 514.253 6.34277 541.664 c 0
 3.11523 569.074 22.7422 593.94 50.1523 597.168 c 0
 108.729 604.065 174.084 608.759 239.899 608.759 c 0
EndSplineSet
Validated: 33
EndChar

StartChar: afii57688
Encoding: 58 1512 26
Width: 606
VWidth: 1000
Flags: W
HStem: 509.506 100<122.113 368.424>
VStem: 453.135 98.71<-1.81971 230.43> 481.619 100<65.5889 407.446>
LayerCount: 2
Back
SplineSet
70 513.175 m 16
 123.974 541.66 191.583 559.506 264.658 559.506 c 0
 406.445 559.506 534.619 459.672 534.619 316.521 c 0
 534.619 219.31 518.603 123.24 505.49 42.375 c 1032
EndSplineSet
Fore
SplineSet
261.658 609.506 m 0xa0
 425.84 609.506 581.619 492.006 581.619 316.521 c 0xa0
 581.619 213.891 564.943 115.142 551.845 34.3711 c 0
 547.427 7.12695 521.73 -11.3984 494.486 -6.98047 c 0
 467.242 -2.5625 448.717 23.1348 453.135 50.3789 c 0xc0
 466.265 131.346 481.619 224.736 481.619 316.521 c 0
 481.619 427.173 380.998 509.506 261.658 509.506 c 0
 196.729 509.506 136.75 493.45 90.3379 468.956 c 0
 65.9287 456.072 35.6631 465.428 22.7803 489.838 c 0
 9.89844 514.247 19.2529 544.512 43.6621 557.394 c 0
 105.178 589.86 180.416 609.506 261.658 609.506 c 0xa0
EndSplineSet
Validated: 33
EndChar

StartChar: afii57689
Encoding: 59 1513 27
Width: 795
VWidth: 1000
Flags: W
HStem: -6.78125 100<265.356 551.299>
VStem: 59.4561 99.9999<247.532 588.464> 371.145 100<286.441 546.416> 650.27 100<230.695 577.957>
LayerCount: 2
Back
SplineSet
368 560.575 m 16
 388 468 401.111 392.662 394.34 321.565 c 0
 384 213 253 215 158.12 196.945 c 1032
631.49 157.885 m 16
 664.822 267.403 686.953 401.285 668.69 538.255 c 1032
80 547.555 m 16
 92 452 72.8501 319.112 101.39 218.335 c 16
 140 82 251.891 34.8058 425.03 44.4248 c 0
 515.456 49.4484 575.261 81.347 626.84 127.195 c 1032
EndSplineSet
Fore
SplineSet
171.076 245.474 m 4
 171.964 245.693 172.86 245.89 173.77 246.062 c 4
 246.301 259.859 322.379 267.141 350.784 289.484 c 4
 369.188 303.971 371.145 325.487 371.145 360.656 c 4
 371.145 413.875 360.331 475 344.128 550.016 c 4
 338.301 577 355.473 603.625 382.441 609.453 c 4
 409.426 615.281 436.051 598.109 441.878 571.141 c 4
 458.426 494.531 471.145 427.125 471.145 360.656 c 4
 471.145 288.657 452.717 242.42 412.612 210.891 c 4
 354.32 165.038 277.549 160.067 218.18 151.915 c 5
 257.455 111.445 318.864 93.2188 408.331 93.2188 c 4
 509.003 93.2188 557.545 113.889 606.616 154.271 c 5
 606.182 160.234 606.815 166.376 608.659 172.438 c 4
 632.581 251.062 650.27 342.5 650.27 437.109 c 4
 650.27 468.375 648.348 499.984 644.128 531.641 c 4
 640.487 559 659.723 584.172 687.081 587.812 c 4
 714.441 591.469 739.612 572.219 743.253 544.859 c 4
 748.098 508.5 750.27 472.453 750.27 437.109 c 4
 750.27 328.143 727.004 211 701.163 135.403 c 5
 703.872 119.027 698.379 101.658 685.065 89.8281 c 4
 618.485 30.6426 532.926 -6.78125 408.331 -6.78125 c 4
 241.723 -6.78125 120.77 54.7031 78.2842 204.703 c 4
 60.2686 268.312 59.4561 336.281 59.4561 399.594 c 4
 59.4561 447.484 60.2744 502.434 55.3936 541.328 c 4
 51.9561 568.703 71.3936 593.719 98.7686 597.172 c 4
 126.159 600.609 151.176 581.172 154.612 553.781 c 4
 160.775 504.735 159.456 452.767 159.456 399.594 c 4
 159.456 343.815 161.182 289.211 171.076 245.474 c 4
EndSplineSet
Validated: 33
EndChar

StartChar: afii57690
Encoding: 60 1514 28
Width: 824
VWidth: 1000
Flags: W
HStem: -8.65625 100<103.871 187.336> 509.797 100<375.545 584.118>
VStem: 182.016 101.549<172.581 430.422> 195 100<92.0036 431.306> 694.375 100<129.96 409.056>
LayerCount: 2
Back
SplineSet
243 474.893 m 24
 245.909 362.855 255.994 261.403 255.994 152.874 c 0
 255.994 99.2945 229.504 41.337 186.891 41.337 c 0
 133.031 41.337 101.414 63.9493 60 94.2529 c 1032
304.305 479.468 m 16
 343.418 530.808 415.439 559.79 482.858 559.79 c 0
 621.776 559.79 755.379 473 755.379 308.482 c 0
 755.379 222.605 731.525 145.095 717.885 64.0576 c 1048
EndSplineSet
Fore
SplineSet
259.173 516.864 m 1xe8
 310.707 579.043 393.52 609.797 471.859 609.797 c 0
 633.016 609.797 794.375 505.25 794.375 308.484 c 0
 794.375 213.188 769.078 132.328 756.188 55.7656 c 0
 751.609 28.5469 725.797 10.1719 698.594 14.75 c 0
 671.375 19.3281 653 45.1406 657.578 72.3594 c 0
 671.984 157.906 694.375 232.062 694.375 308.484 c 0
 694.375 439.25 589.953 509.797 471.859 509.797 c 0
 417.594 509.797 360.031 484.547 333.078 449.172 c 0
 321.125 433.491 301.694 426.842 283.565 430.422 c 1xe8
 287.482 337.681 295 248.922 295 152.875 c 0
 295 84.7126 259.528 -8.65625 175.891 -8.65625 c 4
 106.203 -8.65625 59.8438 24.3594 19.4688 53.9062 c 0
 -2.79688 70.2031 -7.65625 101.5 8.65625 123.781 c 0
 24.9531 146.047 56.25 150.906 78.5312 134.609 c 0
 120.719 103.734 137.609 91.3438 175.891 91.3438 c 1
 186 105 195 123.847 195 152.875 c 0xd8
 195 258.219 184.984 359.266 182.016 473.594 c 0
 181.297 501.188 203.109 524.156 230.703 524.875 c 0
 241.182 525.148 250.993 522.172 259.173 516.864 c 1xe8
EndSplineSet
Validated: 33
EndChar

StartChar: .notdef
Encoding: 61 -1 29
Width: 640
VWidth: 1000
Flags: W
VStem: 50 90<-400 935>
LayerCount: 2
Fore
SplineSet
140 -400 m 25
 50 -400 l 25
 50 935 l 29
 140 935 l 25
 140 -400 l 25
EndSplineSet
Validated: 1
EndChar

StartChar: quotesingle
Encoding: 5 39 31
Width: 207
VWidth: 1000
Flags: W
VStem: 68.0029 99.9901<505.397 731.64>
LayerCount: 2
Back
SplineSet
142 688 m 21
 140.579 581.515 126.864 497.924 94 450 c 1037
EndSplineSet
Fore
SplineSet
111.233 421.723 m 0
 95.625 398.96 64.4824 393.155 41.7207 408.765 c 0
 18.958 424.373 13.1533 455.516 28.7627 478.277 c 0
 50.7021 510.271 66.6357 586.191 68.0029 688.667 c 0
 68.3711 716.265 91.0674 738.363 118.665 737.995 c 0
 146.263 737.627 168.361 714.931 167.993 687.333 c 0
 166.528 577.472 155.246 485.904 111.233 421.723 c 0
EndSplineSet
Validated: 524321
EndChar

StartChar: comma
Encoding: 10 44 32
Width: 233
VWidth: 1000
Flags: W
HStem: -233.828 357.828
VStem: 56 139.071<-3.14947 107.554>
LayerCount: 2
Back
SplineSet
195.071 25.7749 m 1
 195.254 20.2246 195.344 14.6959 195.344 9.1875 c 0
 195.344 -68.4219 177.109 -140.797 147.828 -207.984 c 0
 136.812 -233.281 107.328 -244.859 82.0156 -233.828 c 0
 56.7188 -222.812 45.1406 -193.328 56.1719 -168.016 c 0
 78.2333 -117.374 91.9461 -66.0214 94.7908 -11.8945 c 1
 71.7444 0.113796 56 24.2261 56 52 c 0
 56 91.75 88.25 124 128 124 c 0
 167.75 124 200 91.75 200 52 c 0
 200 42.748 198.253 33.9022 195.071 25.7749 c 1
EndSplineSet
Fore
SplineSet
195.071 25.7749 m 1
 195.254 20.2246 195.344 14.6959 195.344 9.1875 c 0
 195.344 -68.4219 177.109 -140.797 147.828 -207.984 c 0
 136.812 -233.281 107.328 -244.859 82.0156 -233.828 c 0
 56.7188 -222.812 45.1406 -193.328 56.1719 -168.016 c 0
 78.2333 -117.374 91.9461 -66.0214 94.7908 -11.8945 c 1
 71.7444 0.113796 56 24.2261 56 52 c 0
 56 91.75 88.25 124 128 124 c 0
 167.75 124 200 91.75 200 52 c 0
 200 42.748 198.253 33.9022 195.071 25.7749 c 1
EndSplineSet
Validated: 33
EndChar

StartChar: hyphen
Encoding: 11 45 33
Width: 474
VWidth: 1000
Flags: W
HStem: 254.063 99.874<36.0736 433.775>
LayerCount: 2
Back
SplineSet
80 304 m 17
 185.479 298.716 290.068 297.046 394 298.041 c 1025
EndSplineSet
Fore
SplineSet
393.521 348.038 m 4
 421.12 348.303 443.734 326.118 443.998 298.519 c 0
 444.262 270.921 422.077 248.307 394.479 248.043 c 0
 286.742 247.014 184.438 248.705 77.4984 254.063 c 0
 49.9329 255.444 28.6817 278.936 30.0626 306.502 c 0
 31.4435 334.067 54.9362 355.318 82.5016 353.937 c 0
 187.072 348.699 287.842 347.029 393.521 348.038 c 4
EndSplineSet
Validated: 33
EndChar

StartChar: period
Encoding: 12 46 34
Width: 233
VWidth: 1000
Flags: W
HStem: -20 144<72.4479 183.552>
VStem: 56 144<-3.55211 107.552>
LayerCount: 2
Fore
SplineSet
56 52 m 4
 56 91.7441 88.2559 124 128 124 c 4
 167.744 124 200 91.7441 200 52 c 4
 200 12.2559 167.744 -20 128 -20 c 4
 88.2559 -20 56 12.2559 56 52 c 4
EndSplineSet
Validated: 1
EndChar

StartChar: slash
Encoding: 13 47 35
Width: 454
VWidth: 1000
Flags: W
LayerCount: 2
Fore
SplineSet
245.818 483.391 m 2
 283.818 563.359 301.74 626.531 352.037 704.188 c 0
 367.053 727.344 398.037 733.969 421.193 718.969 c 0
 444.35 703.953 450.975 672.969 435.975 649.812 c 0
 394.256 585.438 378.006 528.578 336.193 440.609 c 2
 105.225 -49.3281 l 2
 93.459 -74.2812 63.6465 -85 38.6777 -73.2188 c 0
 13.7246 -61.4531 3.00586 -31.6406 14.7871 -6.67188 c 2
 245.818 483.391 l 2
EndSplineSet
Validated: 33
EndChar

StartChar: zero
Encoding: 14 48 36
Width: 632
VWidth: 1000
Flags: W
HStem: -14.1094 100<185.16 355.62> 549.547 100<236.463 406.844>
VStem: 31.3906 100<148.184 394.273> 503.328 100<219.354 443.172>
LayerCount: 2
Back
SplineSet
478.424 135.95 m 16
 416.812 86.3994 343 35.891 254.253 35.891 c 0
 142.604 35.891 80.3852 135.792 80.3852 269.441 c 0
 80.3852 384.196 126.968 456.093 178.724 521.65 c 1032
144.523 475.1 m 16
 192 569 212 599.55 327.224 599.55 c 0
 450.811 599.55 552.326 474.099 552.326 334.239 c 0
 552.326 231.918 514 178 455.924 97 c 1032
EndSplineSet
Fore
SplineSet
229.567 517.736 m 1
 228.827 508.188 225.343 498.747 218.969 490.672 c 0
 173.561 433.149 131.391 370.918 131.391 269.438 c 0
 131.391 152.812 180.672 85.8906 255.25 85.8906 c 0
 325.143 85.8906 396 129 453.118 178.468 c 1
 486.914 228.981 503.328 266.967 503.328 334.234 c 0
 503.328 453.641 417.422 549.547 328.219 549.547 c 0
 278.369 549.547 253.876 546.503 229.567 517.736 c 1
101.774 499.371 m 1
 151.902 598.234 191.118 649.547 328.219 649.547 c 0
 485.234 649.547 603.328 495.922 603.328 334.234 c 0
 603.328 217.516 554.656 147.516 497.562 67.8594 c 0
 485.296 50.7695 464.224 43.71 444.967 48.4385 c 1
 392.549 14.2793 329.742 -14.1094 255.25 -14.1094 c 0
 105.016 -14.1094 31.3906 120.891 31.3906 269.438 c 0
 31.3906 367.223 63.1582 440.268 101.774 499.371 c 1
EndSplineSet
Validated: 33
EndChar

StartChar: colon
Encoding: 24 58 37
Width: 233
VWidth: 1000
Flags: W
HStem: -20 144<72.4479 183.552> 372 144<72.4479 183.552>
VStem: 56 144<-3.55211 107.552 388.448 499.552>
LayerCount: 2
Fore
SplineSet
56 444 m 0
 56 483.744 88.2559 516 128 516 c 0
 167.744 516 200 483.744 200 444 c 0
 200 404.256 167.744 372 128 372 c 0
 88.2559 372 56 404.256 56 444 c 0
56 52 m 4
 56 91.7441 88.2559 124 128 124 c 4
 167.744 124 200 91.7441 200 52 c 4
 200 12.2559 167.744 -20 128 -20 c 4
 88.2559 -20 56 12.2559 56 52 c 4
EndSplineSet
Validated: 1
EndChar

StartChar: question
Encoding: 29 63 38
Width: 541
VWidth: 1000
Flags: W
HStem: -20 144<202.448 313.552> 628.292 99.97<191.465 359.179>
VStem: 37.9834 99.8966<480.386 579.759> 186 144<-3.55211 107.552> 418.974 99.916<464.358 570.745>
LayerCount: 2
Back
SplineSet
340 24 m 1048
173 492 m 16,1,2
 179 536 195.244 570.859 219 591 c 0,3,4
 265 630 304.159 650.829 365 646 c 0,5,6
 428 641 459.748 625.898 499 588 c 0,7,8
 528 560 557.347 528.977 554 481 c 0,9,10
 551 438 540.505 422.505 513 395 c 0,11,12
 480 362 451.104 346.914 419 308 c 0,13,14
 386 268 372 248 354 204 c 1032
EndSplineSet
Fore
SplineSet
186 52 m 0
 186 91.7441 218.256 124 258 124 c 0
 297.744 124 330 91.7441 330 52 c 0
 330 12.2559 297.744 -20 258 -20 c 0
 218.256 -20 186 12.2559 186 52 c 0
37.9834 526.548 m 0
 43.4035 645.786 156.832 731.261 281.137 728.262 c 0
 391.836 725.593 513.8 640.041 518.89 515.316 c 0
 521.113 460.926 493.779 418.06 461.478 390.2 c 0
 394 332 347.615 296.558 315.209 217.345 c 0
 304.759 191.8 275.545 179.549 250 190 c 0
 224.455 200.45 212.204 229.664 222.655 255.209 c 0
 260.951 348.823 325 410 394.386 464.354 c 0
 410.388 476.889 420.07 484.388 418.974 511.238 c 0
 416.298 576.765 345.661 626.677 278.726 628.292 c 0
 221.662 629.667 141.187 594.729 137.88 522.006 c 0
 136.627 494.435 113.233 473.076 85.6611 474.329 c 0
 58.0898 475.582 36.7295 498.976 37.9834 526.548 c 0
EndSplineSet
Validated: 524321
EndChar

StartChar: bracketleft
Encoding: 30 91 39
Width: 334
VWidth: 1000
Flags: W
HStem: -143.984 101.234<137.487 289.437> 655.141 98.843<130.503 296.091>
VStem: 38.0029 259.984<-133.595 -46.0196 661.442 751.342> 38.0029 99.4841<-42.75 655.141>
LayerCount: 2
Back
SplineSet
278 708 m 28
 210.14 706.44 171.86 705.56 104 704 c 13
 107.12 392.78 108.88 217.22 112 -94 c 13
 174.4 -92.4404 209.6 -91.5596 272 -90 c 1052
EndSplineSet
Fore
SplineSet
130.503 655.141 m 1xe0
 137.487 -42.75 l 1xd0
 246.753 -40.0156 l 2
 274.347 -39.3281 297.3 -61.1562 297.987 -88.75 c 0
 298.675 -116.344 276.847 -139.297 249.253 -139.984 c 2
 89.2529 -143.984 l 2
 60.0498 -144.719 38.2998 -123.703 38.0029 -94.5 c 2
 30.0029 703.5 l 2
 29.7217 732.141 50.2217 753.328 78.8467 753.984 c 2
 252.847 757.984 l 2
 280.44 758.625 303.362 736.734 303.987 709.156 c 0
 304.628 681.562 282.737 658.641 255.159 658.016 c 2
 130.503 655.141 l 1xe0
EndSplineSet
Validated: 33
EndChar

StartChar: backslash
Encoding: 31 92 40
Width: 454
VWidth: 1000
Flags: W
LayerCount: 2
Back
SplineSet
304 -138 m 25
 -10 726 l 29
 103 700 l 29
 401 -152 l 25
 304 -138 l 25
EndSplineSet
Fore
SplineSet
208.187 483.391 m 2
 439.218 -6.67188 l 2
 450.999 -31.6406 440.28 -61.4531 415.327 -73.2188 c 0
 390.358 -85 360.546 -74.2812 348.78 -49.3281 c 2
 117.812 440.609 l 2
 75.999 528.578 59.749 585.438 18.0303 649.812 c 0
 3.03027 672.969 9.65527 703.953 32.8115 718.969 c 0
 55.9678 733.969 86.9521 727.344 101.968 704.188 c 0
 152.265 626.531 170.187 563.359 208.187 483.391 c 2
EndSplineSet
Validated: 524321
EndChar

StartChar: afii57664
Encoding: 34 1488 41
Width: 666
VWidth: 1000
Flags: W
VStem: 529.391 99.875<436.075 600.728>
LayerCount: 2
Back
SplineSet
80 43.2002 m 16
 120 168 165 269 231.512 382.176 c 1032
583.328 556.8 m 16
 576 410 495.736 284.631 434.384 176.736 c 1048
77 539 m 24
 121.235 493.863 145.285 467.497 190.424 423.264 c 24
 340.382 276.316 446 179 582.472 54.3281 c 1032
EndSplineSet
Fore
SplineSet
499.8 197.004 m 1
 612.734 90.7344 l 2
 632.844 71.8281 633.797 40.1562 614.891 20.0625 c 0
 595.969 -0.03125 564.312 -1 544.203 17.9219 c 2
 428.555 126.761 l 1
 402.373 127.688 382.912 148.713 380.626 171.868 c 1
 240.52 303.725 l 1
 191.772 214.221 156.312 129.981 123.609 27.9375 c 0
 115.188 1.65625 87.0156 -12.8438 60.7344 -4.40625 c 0
 34.4531 4.01562 19.9688 32.1719 28.3906 58.4688 c 0
 65.3887 173.9 107.343 271.181 165.385 374.436 c 1
 121.142 416.077 80.4846 461.304 37.2969 504 c 0
 17.9688 523.719 18.2969 555.391 38 574.703 c 0
 57.7188 594.031 89.3906 593.703 108.703 574 c 2
 108.703 574 176.55 502.93 221.406 458.969 c 24
 299.158 382.771 424.696 267.676 424.696 267.676 c 1
 475.945 358.71 524.199 455.255 529.391 559.297 c 0
 530.766 586.859 554.25 608.109 581.828 606.734 c 0
 609.391 605.359 630.641 581.875 629.266 554.312 c 0
 622.213 412.972 556.373 294.747 499.8 197.004 c 1
EndSplineSet
Validated: 33
EndChar

StartChar: afii57665
Encoding: 35 1489 42
Width: 700
VWidth: 1000
Flags: W
HStem: -6.28125 100<20.9185 400.348> 28.1875 95.0165<261.548 444.81 552.649 663.927> 505.594 100<234.071 479.816>
VStem: 527.75 100<245.377 456.492>
LayerCount: 2
Back
SplineSet
80 46.7197 m 16
 173.941 37.7741 249.351 50.8332 336.784 60.2354 c 16
 434.807 70.7751 543 88 638.619 71.0469 c 1032
116.94 465.685 m 16
 193.942 522.026 294.395 555.595 414 555.595 c 0
 510 555.595 594.75 491.596 594.75 364.5 c 0
 594.75 264 547.343 178.174 501.668 117.899 c 1032
EndSplineSet
Fore
SplineSet
552.649 127.891 m 1x70
 578.592 127.131 604.584 124.846 630.344 120.281 c 0
 657.531 115.453 675.672 89.5 670.844 62.3125 c 0
 666.031 35.1406 640.062 17 612.891 21.8125 c 0
 587.609 26.2969 560.375 28.1875 531.922 28.1875 c 0x70
 398.241 28.1875 265.321 -6.28125 126.719 -6.28125 c 0
 104.797 -6.28125 82.0625 -5.32812 58.2656 -3.0625 c 0
 30.7812 -0.4375 10.6094 23.9844 13.2188 51.4531 c 0
 15.8438 78.9375 40.2656 99.1094 67.7344 96.5 c 0
 88.2031 94.5469 107.688 93.7188 126.719 93.7188 c 0xb0
 226.82 93.7188 332.791 113.823 434.944 123.204 c 5
 435.867 131.955 439.113 140.572 444.812 148.094 c 0
 487.125 203.922 527.75 280.188 527.75 364.5 c 0
 527.75 461.609 467.812 505.594 397 505.594 c 0
 286.734 505.594 197.297 474.953 129.469 425.328 c 0
 107.188 409.031 75.8906 413.891 59.5938 436.156 c 0
 43.2969 458.438 48.1406 489.734 70.4219 506.031 c 0
 156.625 569.125 268.078 605.594 397 605.594 c 0
 520.641 605.594 627.75 518.688 627.75 364.5 c 0
 627.75 270.028 592.254 189.53 552.649 127.891 c 1x70
EndSplineSet
Validated: 33
EndChar

StartChar: afii57666
Encoding: 36 1490 43
Width: 511
VWidth: 1000
Flags: W
HStem: -7.5 96.4062<-2.54864 106.794> 505.531 100<144.445 294.48>
LayerCount: 2
Back
SplineSet
382.681 262.46 m 16
 383 133 149.304 64.4779 63 40.7002 c 1032
178.2 529.34 m 16
 206.879 546.069 231 555.534 272 555.534 c 0
 318.738 555.534 355.399 530.11 366.36 487.1 c 16
 401.327 349.934 429.94 206.656 453.721 56.0596 c 1048
EndSplineSet
Fore
SplineSet
336.214 305.498 m 1
 324.079 363.028 311.009 419.417 296.906 474.75 c 4
 292.234 493.078 278.047 505.531 251 505.531 c 0
 217.938 505.531 207.688 500.906 182.391 486.156 c 0
 158.547 472.25 127.922 480.312 114.016 504.141 c 0
 100.109 527.984 108.172 558.625 132 572.531 c 0
 164.375 591.406 202.375 605.531 251 605.531 c 0
 318.422 605.531 376.906 565.781 393.812 499.453 c 0
 429.219 360.531 458.125 215.734 482.109 63.8594 c 0
 486.422 36.5938 467.781 10.9844 440.516 6.67188 c 0
 413.266 2.35938 387.641 21 383.328 48.2656 c 0
 378.057 81.6475 372.548 114.652 366.786 147.292 c 1
 284.931 51.6729 114.434 8.80078 55.2812 -7.5 c 0
 28.6719 -14.8281 1.125 0.8125 -6.20312 27.4219 c 0
 -13.5312 54.0312 2.10938 81.5781 28.7188 88.9062 c 0
 137.016 118.734 311.688 188.953 311.688 262.156 c 0
 311.688 262.188 311.688 262.375 311.688 262.391 c 0
 311.604 280.728 321.482 296.778 336.214 305.498 c 1
EndSplineSet
Validated: 33
EndChar

StartChar: afii57667
Encoding: 37 1491 44
Width: 677
VWidth: 1000
Flags: W
HStem: 503.609 100<91.0863 434.235>
VStem: 414.328 100<14.997 499.119> 432.047 99.906<-1.11945 270.685>
LayerCount: 2
Back
SplineSet
520.35 485.34 m 16
 505.477 420.892 502.331 349 502.331 277 c 0
 502.331 145 517 116 520 42.4404 c 1032
102.17 520.36 m 16
 155.042 543.686 201 553.612 289 553.612 c 0
 404.513 553.612 492 539 639.83 561.56 c 1032
EndSplineSet
Fore
SplineSet
434.235 498.954 m 0xc0
 369.056 499.021 313.231 503.609 251 503.609 c 0
 166.156 503.609 131.641 495.484 84.3594 474.609 c 0
 59.0938 463.469 29.5625 474.922 18.4219 500.172 c 0
 7.28125 525.438 18.7344 554.969 43.9844 566.109 c 0
 102.594 591.969 160 603.609 251 603.609 c 0
 318.688 603.609 375.031 598.953 435.672 598.953 c 0
 482.562 598.953 532.516 601.562 594.281 610.984 c 0
 621.578 615.156 647.094 596.391 651.25 569.109 c 0
 655.422 541.812 636.656 516.297 609.375 512.125 c 0
 580.8 507.77 554.241 504.734 529.244 502.685 c 1
 532.526 493.838 533.346 483.967 531.062 474.094 c 0
 517.672 416.031 514.328 347.531 514.328 277 c 0xc0
 514.328 149.281 528.609 126.5 531.953 44.4844 c 0
 533.078 16.9062 511.609 -6.39062 484.031 -7.51562 c 0
 456.453 -8.64062 433.172 12.8281 432.047 40.4062 c 0xa0
 429.391 105.5 414.328 140.703 414.328 277 c 0
 414.328 350.453 417.281 425.734 433.625 496.578 c 0
 433.81 497.379 434.014 498.171 434.235 498.954 c 0xc0
EndSplineSet
Validated: 33
EndChar

StartChar: afii57668
Encoding: 38 1492 45
Width: 684
VWidth: 1000
Flags: W
HStem: 510 100<194.732 481.967>
VStem: 121.057 99.886<-0.942421 276.28> 514.475 95.05<-10.1147 109.578> 557.578 100<108.928 426.774>
LayerCount: 2
Back
SplineSet
180 43 m 16
 183.389 114.173 171.269 174.612 181 233 c 1048
80 500 m 16
 178.248 532.318 275 560 396 560 c 8
 560.479 560 616.578 440 616.578 292 c 0
 616.578 196.894 595.194 109.004 571 35 c 1032
EndSplineSet
Fore
SplineSet
122.68 241.22 m 0xc0
 127.218 268.444 152.995 286.857 180.22 282.32 c 0
 207.444 277.782 225.857 252.005 221.32 224.78 c 0
 212.034 169.08 224.035 105.535 220.943 40.6221 c 0
 219.631 13.0527 196.19 -8.25586 168.622 -6.94336 c 0
 141.053 -5.63086 119.744 17.8096 121.057 45.3779 c 0
 124.218 111.859 112.03 177.324 122.68 241.22 c 0xc0
387 610 m 0
 590.305 610 657.578 454.851 657.578 292 c 0xd0
 657.578 189.376 634.641 96.2891 609.525 19.4629 c 0
 600.948 -6.77051 572.697 -21.1016 546.463 -12.5244 c 0
 520.229 -3.94824 505.899 24.3027 514.475 50.5371 c 0xe0
 537.749 121.728 557.578 204.419 557.578 292 c 0xd0
 557.578 418.688 516.197 510 387 510 c 0
 273.8 510 183.844 484.484 86.624 452.504 c 0
 60.4062 443.879 32.1279 458.158 23.5039 484.376 c 0
 14.8799 510.594 29.1582 538.872 55.376 547.496 c 0
 154.669 580.159 258.21 610 387 610 c 0
EndSplineSet
Validated: 33
EndChar

StartChar: afii57669
Encoding: 39 1493 46
Width: 255
VWidth: 1000
Flags: W
HStem: -14 21G<114.203 141.803>
VStem: 81.2432 99.9988<-6.11931 605.585>
LayerCount: 2
Back
SplineSet
126 566 m 16
 138 417 129 243 129 36 c 1032
EndSplineSet
Fore
SplineSet
181.242 374.688 m 0
 181.242 271.467 178.003 159.335 178.003 36 c 0
 178.003 8.40039 155.603 -14 128.003 -14 c 0
 100.403 -14 78.0029 8.40039 78.0029 36 c 0
 78.0029 161.065 81.2432 273.572 81.2432 374.688 c 0
 81.2432 442.096 79.7998 504.426 75.1641 561.986 c 0
 72.9482 589.497 93.4785 613.623 120.988 615.839 c 0
 148.5 618.054 172.626 597.525 174.842 570.014 c 0
 179.806 508.374 181.242 443.504 181.242 374.688 c 0
EndSplineSet
Validated: 33
EndChar

StartChar: afii57670
Encoding: 40 1494 47
Width: 377
VWidth: 1000
Flags: W
HStem: 504.86 100.109<13.245 157.496 260.022 344.071>
VStem: 127.828 100<37.7144 466.083> 139 100<0.460731 322.433>
LayerCount: 2
Back
SplineSet
238.649 494.725 m 16
 178 441 215 182 215 44.4248 c 1032
80 549.825 m 16
 164.876 560.176 222 551.725 327.949 551.725 c 1032
EndSplineSet
Fore
SplineSet
157.496 504.86 m 1xc0
 123.039 505.35 95.7634 504.543 60.0469 500.188 c 0
 32.6562 496.844 7.70312 516.375 4.375 543.766 c 0
 1.03125 571.172 20.5469 596.109 47.9531 599.453 c 0
 82.4385 603.656 113.047 604.969 142.891 604.969 c 0
 191.766 604.969 237.953 601.719 301.953 601.719 c 0
 329.547 601.719 351.953 579.328 351.953 551.719 c 0
 351.953 524.125 329.547 501.719 301.953 501.719 c 0
 287.856 501.719 274.621 501.861 262.104 502.086 c 1
 264.491 485.93 258.932 468.923 245.797 457.297 c 0
 230.405 443.537 227.828 379.739 227.828 327.047 c 4xc0
 227.828 235.781 239 124.328 239 44.4219 c 0
 239 16.8281 216.594 -5.57812 189 -5.57812 c 0
 161.406 -5.57812 139 16.8281 139 44.4219 c 0xa0
 139 115.734 127.828 228.844 127.828 327.047 c 0
 127.828 395.496 131.767 459.978 157.496 504.86 c 1xc0
EndSplineSet
Validated: 33
EndChar

StartChar: afii57671
Encoding: 41 1495 48
Width: 737
VWidth: 1000
Flags: W
HStem: 511.266 100<278.484 501.67>
VStem: 50 100<-1.03888 396.62> 612.844 100<92.7483 398.138>
LayerCount: 2
Back
SplineSet
98.3486 458.61 m 16
 81.9304 322.646 79.5506 188.779 84.4062 41.3164 c 1032
87.0195 417 m 16
 165 490.404 247.363 561.27 387 561.27 c 0
 554 561.27 645.01 420 645.01 291 c 0
 645.01 201.947 631.293 110.469 604.62 41.3164 c 1032
EndSplineSet
Fore
SplineSet
130.362 506.562 m 1
 198.928 562.52 284.236 611.266 404.828 611.266 c 0
 604.609 611.266 712.844 442.016 712.844 291 c 0
 712.844 196.812 698.953 100.703 669.094 23.3281 c 0
 659.172 -2.42188 630.203 -15.2656 604.453 -5.32812 c 0
 578.703 4.59375 565.859 33.5625 575.797 59.3125 c 0
 599.312 120.281 612.844 207.141 612.844 291 c 0
 612.844 397.531 539.641 511.266 404.828 511.266 c 0
 295.14 511.266 229.504 463.704 160.172 400.181 c 1
 152.985 324.207 150 248.045 150 168.547 c 0
 150 127.703 150.797 85.9688 152.203 42.9688 c 0
 153.109 15.375 131.469 -7.75 103.875 -8.65625 c 0
 76.2969 -9.5625 53.1719 12.0781 52.2656 39.6719 c 0
 50.8125 83.5781 50 126.406 50 168.547 c 0
 50 245.93 52.75 321.023 59.3867 396.154 c 1
 51.9424 412.391 53.7002 431.726 64.416 446.424 c 1
 69.7422 492.211 81.8281 511 130.362 506.562 c 1
EndSplineSet
Validated: 33
EndChar

StartChar: afii57672
Encoding: 42 1496 49
Width: 701
VWidth: 1000
Flags: W
HStem: -6.51562 100<272.703 485.244> 510.516 100<397.806 541.982>
VStem: 50 100<205.602 560.66> 283.672 100<384.083 498.133> 556.578 100<176.059 483.848>
LayerCount: 2
Back
SplineSet
548.695 527.4 m 16
 509.135 549.48 480.246 560.52 436 560.52 c 0
 359.905 560.52 314.095 515 314.095 428.04 c 1032
576.295 510.84 m 16
 586.782 438.931 587 410.423 587 346 c 16
 587 121 512 43.4805 367.455 43.4805 c 8
 215.752 43.4805 80.415 145 80.415 306 c 0
 80.415 374.105 83.1748 451.96 87.7754 521.88 c 1032
EndSplineSet
Fore
SplineSet
606.437 559.718 m 1
 626.234 555.429 642.248 539.268 645.344 518.062 c 0
 656.078 444.484 656.578 410.031 656.578 346 c 0
 656.578 94.8594 562.578 -6.51562 387.031 -6.51562 c 0
 212.39 -6.51562 50 113.297 50 306 c 0
 50 375.438 52.7812 454.125 57.4688 525.156 c 0
 59.2812 552.703 83.0938 573.578 110.641 571.766 c 0
 138.172 569.953 159.062 546.141 157.25 518.594 c 0
 152.719 449.797 150 372.766 150 306 c 0
 150 177.609 257.484 93.4844 387.031 93.4844 c 0
 491.719 93.4844 556.578 139.719 556.578 346 c 0
 556.578 403.305 556.627 427.578 549.548 481.028 c 1
 515.977 494.625 509.58 510.516 455.578 510.516 c 0
 402.271 510.516 383.672 480.143 383.672 428.047 c 0
 383.672 400.438 361.266 378.047 333.672 378.047 c 0
 306.078 378.047 283.672 400.438 283.672 428.047 c 0
 283.672 536.535 345.896 610.516 455.578 610.516 c 0
 511.677 610.516 572.58 590 606.437 559.718 c 1
EndSplineSet
Validated: 33
EndChar

StartChar: afii57673
Encoding: 43 1497 50
Width: 221
VWidth: 995
Flags: W
HStem: 263.012 352.384
VStem: 71.0195 99.9755<269.085 585.844>
LayerCount: 2
Back
SplineSet
110 566 m 16
 122.893 483.808 130.005 402.783 132 313 c 1036
EndSplineSet
Fore
SplineSet
170.995 314.111 m 0
 171.607 286.518 149.711 263.626 122.118 263.012 c 0
 94.5244 262.399 71.6328 284.296 71.0195 311.889 c 0
 69.0674 399.71 62.1592 478.255 49.6104 558.252 c 0
 45.334 585.518 63.9922 611.119 91.2588 615.396 c 0
 118.524 619.673 144.126 601.015 148.403 573.748 c 0
 161.64 489.36 168.956 405.855 170.995 314.111 c 0
EndSplineSet
Validated: 33
EndChar

StartChar: afii57674
Encoding: 44 1498 51
Width: 667
VWidth: 990
Flags: W
HStem: 516.23 100<208.169 468.33>
VStem: 492.42 100<-371.962 -32.3294> 527.015 100<3.79557 455.506>
LayerCount: 2
Back
SplineSet
80 494 m 16
 173.349 529.132 262.34 566.23 379.055 566.23 c 0
 580.882 566.23 586.015 466.228 586.015 300.246 c 0
 586.015 206.334 579.833 114.597 572.48 32.8994 c 12
 559.85 -107.447 551.42 -212.801 551.42 -328 c 1032
EndSplineSet
Fore
SplineSet
370.055 616.23 m 0xa0
 617.984 616.23 627.015 482.681 627.015 300.246 c 0xa0
 627.015 204.149 620.707 110.961 613.279 28.418 c 0
 600.661 -111.781 592.42 -215.338 592.42 -328 c 0
 592.42 -355.6 570.02 -378 542.42 -378 c 0
 514.82 -378 492.42 -355.6 492.42 -328 c 0xc0
 492.42 -210.264 501.038 -103.113 513.681 37.3809 c 0
 520.958 118.234 527.015 208.519 527.015 300.246 c 0
 527.015 387.734 532.035 516.23 370.055 516.23 c 0
 264.337 516.23 183.461 482.9 88.6113 447.204 c 0
 62.7803 437.483 33.9258 450.557 24.2041 476.389 c 0
 14.4824 502.22 27.5576 531.074 53.3887 540.796 c 0
 145.232 575.361 242.312 616.23 370.055 616.23 c 0xa0
EndSplineSet
Validated: 33
EndChar

StartChar: afii57675
Encoding: 45 1499 52
Width: 603
VWidth: 1000
Flags: W
HStem: 507.453 100<141.652 381.701>
VStem: 473.672 100<122.187 418.868>
LayerCount: 2
Back
SplineSet
112.32 521.56 m 16
 164.88 543.635 203.52 557.46 266.072 557.46 c 0
 337.576 557.46 399.514 537.366 445 503 c 0
 506.215 456.749 528.674 399.386 528.674 312.107 c 0
 528.674 237.233 516.06 177.764 502.4 115.84 c 0
 492.286 69.9883 463.897 43.2902 408.561 40.4004 c 0
 286 34 152 36 70 81.7998 c 1032
EndSplineSet
Fore
SplineSet
261.078 607.453 m 0
 443.923 607.453 573.672 499.785 573.672 312.109 c 0
 573.672 231.516 559.906 167.094 546.219 105.062 c 0
 531.344 37.6094 480.734 -5.64062 406.172 -9.53125 c 0
 269.95 -16.6252 139.909 -17.308 40.625 38.1406 c 0
 16.5156 51.6094 7.89062 82.0781 21.3438 106.188 c 0
 34.8125 130.281 65.2812 138.906 89.375 125.453 c 0
 153.771 89.4869 289.704 84.5308 400.953 90.3281 c 4
 431.703 91.9375 442.641 99.7344 448.578 126.609 c 0
 462.203 188.422 473.672 242.953 473.672 312.109 c 0
 473.672 456.497 377 507.453 261.078 507.453 c 0
 206.297 507.453 178.609 497.266 126.688 475.453 c 0
 101.234 464.766 71.9062 476.75 61.2188 502.203 c 0
 50.5312 527.641 62.5156 556.969 87.9531 567.656 c 0
 141.281 590.062 190.859 607.453 261.078 607.453 c 0
EndSplineSet
Validated: 33
EndChar

StartChar: afii57676
Encoding: 46 1500 53
Width: 588
VWidth: 1000
Flags: W
HStem: -10.2549 100<93.5518 338.219> -0.729492 99.5488<86.6393 278.627> 507.907 100<100.423 407.975>
VStem: 24.959 100<608.125 921.859> 473.949 100<265.675 452.303>
LayerCount: 2
Back
SplineSet
165.56 49.0449 m 24
 215.881 44.2514 263.718 39.7451 316.22 39.7451 c 0
 439 39.7451 558.949 247.258 558.949 374.545 c 0
 558.949 529 422 565 235.31 556.825 c 8
 176.268 554.24 123 532 80 581.005 c 1
 94.085 672.018 124 803 102.319 883.255 c 1032
EndSplineSet
Fore
SplineSet
281.22 89.7451 m 0x78
 362.03 89.7451 473.949 265.21 473.949 374.545 c 0
 473.949 471.824 400.714 507.907 247.462 507.907 c 0
 200.225 507.907 168.719 499.562 118.138 499.562 c 0
 76.0873 499.562 -13.5739 529.435 -4.41211 588.652 c 0
 6.45703 658.881 24.959 747.782 24.959 814.55 c 0
 24.959 836.803 22.8477 856.155 19.0498 870.215 c 0
 11.8516 896.86 27.6338 924.326 54.2793 931.525 c 4
 80.9238 938.723 108.39 922.94 115.589 896.295 c 0
 122.689 870.012 124.959 842.604 124.959 814.55 c 0
 124.959 742.783 109.753 664.146 99.0303 601.464 c 1
 137 600 194.811 607.907 247.462 607.907 c 0
 423.278 607.907 573.949 556.017 573.949 374.545 c 0
 573.949 239.413 450.865 -10.2549 281.22 -10.2549 c 0xb8
 225.819 -10.2549 176.128 -5.52246 125.819 -0.729492 c 0
 98.3428 1.8877 78.168 26.3105 80.7852 53.7861 c 0
 83.4033 81.2617 107.826 101.437 135.301 98.8193 c 0
 185.634 94.0254 231.618 89.7451 281.22 89.7451 c 0x78
EndSplineSet
Validated: 33
EndChar

StartChar: afii57677
Encoding: 47 1501 54
Width: 742
VWidth: 996
Flags: W
HStem: -10 100<261.013 583.529> 505.219 100<230.144 524.29>
VStem: 118.703 100<132.352 476.856> 602.125 100<103.507 423.408>
LayerCount: 2
Back
SplineSet
628 59 m 16
 569 46 450.832 40 367.9 40 c 8
 269.789 40 184.3 71.5 176.2 202.9 c 8
 168.075 334.705 175 437 187.9 541.301 c 1032
70 516.101 m 16
 176.548 545.158 275.585 550.149 389.5 554.801 c 8
 520.355 560.138 642 516 651.4 345.101 c 0
 657.293 237.971 664.896 123.551 624.4 70.6006 c 1032
EndSplineSet
Fore
SplineSet
189.068 591.032 m 1
 259.899 600.062 330.079 605.219 405.766 605.219 c 0
 550.266 605.219 686.719 540.625 697.328 347.844 c 0
 699.562 307.266 702.125 264.734 702.125 223.594 c 4
 702.125 166.414 699.75 108.919 673.941 61.5557 c 1
 675.189 37.5859 658.972 15.5049 634.766 10.1719 c 0
 567.016 -4.75 449.797 -10 363.906 -10 c 0
 244.531 -10 132.312 37.4219 122.297 199.828 c 0
 119.828 239.875 118.703 277.406 118.703 313.156 c 0
 118.703 372.321 121.787 426.595 126.784 479.329 c 1
 110.988 476.015 95.1455 472.222 79.1562 467.859 c 0
 52.5312 460.594 25.0156 476.312 17.7656 502.953 c 0
 10.5 529.578 26.2188 557.078 52.8438 564.344 c 0
 91.1816 574.794 128.457 582.271 165.434 587.771 c 1
 172.71 590.673 180.767 591.899 189.068 591.032 c 1
228.856 494.92 m 1
 222.6 436.564 218.703 378.137 218.703 313.156 c 0
 218.703 279.484 219.75 244.062 222.109 205.969 c 0
 227.922 111.562 282.188 90 363.906 90 c 0
 430.17 90 523.245 94.6396 581.793 102.518 c 1
 592.983 119.254 602.125 165.117 602.125 223.594 c 4
 602.125 260.531 599.719 301.516 597.469 342.359 c 0
 590.516 468.812 511.547 505.219 405.766 505.219 c 0
 344.258 505.219 283.131 500.551 228.856 494.92 c 1
EndSplineSet
Validated: 33
EndChar

StartChar: afii57678
Encoding: 48 1502 55
Width: 666
VWidth: 1000
Flags: W
HStem: 16.7656 92.3904<232.182 357.91> 508.562 100<300.788 470.764>
VStem: 55.7832 98.4378<497.347 580.849> 67.3457 100<24.0388 374.369> 536.424 100<152.834 436.319>
LayerCount: 2
Back
SplineSet
113.516 382.16 m 16
 169 468 244.774 558.56 367 558.56 c 0
 494 558.56 561.42 453.638 561.42 321 c 0
 561.42 191 531 48 425.744 39.4404 c 0
 362.503 34.2975 306.093 40.9414 252.871 62.96 c 1033
80 536.72 m 16
 104 402 92.3477 224.615 92.3477 68 c 1048
EndSplineSet
Fore
SplineSet
161.444 495.966 m 1xe8
 216.042 556.686 289.926 608.562 392.002 608.562 c 0
 555.518 608.562 636.424 471.078 636.424 321 c 0
 636.424 203.297 611.189 2.32812 454.799 -10.3906 c 0
 380.255 -16.4492 320.268 -8.69629 258.752 16.7656 c 0
 233.252 27.3125 221.127 56.5781 231.674 82.0781 c 0
 242.221 107.578 271.486 119.719 296.986 109.156 c 0
 341.773 90.6289 389.569 84.6445 446.689 89.2812 c 4
 506.924 94.1719 536.424 192.234 536.424 321 c 0
 536.424 433.5 484.455 508.562 392.002 508.562 c 0
 297.377 508.562 234.658 438.797 180.502 355.016 c 0
 177.552 350.449 173.979 346.524 169.969 343.28 c 1
 171.067 251.444 167.346 155.255 167.346 68 c 0
 167.346 40.4062 144.955 18 117.346 18 c 0
 89.752 18 67.3457 40.4062 67.3457 68 c 0xd8
 67.3457 146.359 70.1738 228.516 70.1738 307 c 0
 70.1738 387.797 67.0332 464.719 55.7832 527.953 c 0
 50.9395 555.125 69.0645 581.109 96.2363 585.938 c 0
 123.408 590.781 149.393 572.656 154.221 545.484 c 0
 157.096 529.352 159.477 512.823 161.444 495.966 c 1xe8
EndSplineSet
Validated: 33
EndChar

StartChar: afii57679
Encoding: 49 1503 56
Width: 222
VWidth: 1000
Flags: W
VStem: 54.0156 100<-317.65 624.933>
LayerCount: 2
Back
SplineSet
112.583 582 m 24
 110.664 291.801 109.689 10.2716 114.583 -276 c 1052
EndSplineSet
Fore
SplineSet
154.016 184.641 m 0
 154.016 31.2656 154.953 -121.281 157.578 -275.141 c 0
 158.047 -302.734 136.031 -325.516 108.438 -326 c 0
 80.8438 -326.469 58.0625 -304.453 57.5938 -276.859 c 0
 54.9531 -122.266 54.0156 30.8594 54.0156 184.641 c 0
 54.0156 316.297 54.7031 448.422 55.5781 582.328 c 0
 55.7656 609.938 78.3125 632.188 105.906 632 c 0
 133.516 631.812 155.766 609.266 155.578 581.672 c 0
 154.703 447.859 154.016 315.953 154.016 184.641 c 0
EndSplineSet
Validated: 33
EndChar

StartChar: afii57680
Encoding: 50 1504 57
Width: 427
VWidth: 1000
Flags: W
HStem: -9.59961 100<7.26889 238.377> 507.129 100<92.6066 238.168>
VStem: 297.272 100<143.556 423.905>
LayerCount: 2
Back
SplineSet
151.288 540.135 m 16
 167.954 551.027 189.528 557.129 216 557.129 c 0
 341.272 557.129 377.272 373.82 377.272 252.1 c 0
 377.272 86.1973 321.341 40.4 119.166 40.4 c 4
 106.912 40.4 94.8206 40.8449 80 42.625 c 1032
EndSplineSet
Fore
SplineSet
186 607.129 m 0
 362.688 607.129 397.272 368.434 397.272 252.1 c 0
 397.272 46.0332 311.484 -9.59961 89.166 -9.59961 c 0
 75.7148 -9.59961 61.0693 -9.06348 44.0371 -7.01855 c 0
 16.6348 -3.72656 -2.93457 21.1846 0.356445 48.5879 c 0
 3.64844 75.9902 28.5596 95.5596 55.9629 92.2686 c 0
 68.5703 90.7539 78.1074 90.4004 89.166 90.4004 c 0
 243.495 90.4004 297.272 119.709 297.272 252.1 c 0
 297.272 384.753 260.316 507.129 186 507.129 c 0
 168.77 507.129 158.722 504.796 148.642 498.281 c 4
 125.459 483.304 94.5332 489.678 79.4336 512.781 c 0
 64.335 535.885 70.7246 567.053 93.9336 581.989 c 0
 116.614 596.584 149.544 607.129 186 607.129 c 0
EndSplineSet
Validated: 33
EndChar

StartChar: afii57681
Encoding: 51 1505 58
Width: 626
VWidth: 1000
Flags: W
HStem: -6.17188 100<264.342 413.27> 506.906 100<263.333 434.74>
VStem: 506.476 100<201.402 428.197>
LayerCount: 2
Back
SplineSet
103.044 519.785 m 16
 86.6831 443.933 71.2626 333.952 83.9043 252.695 c 8
 101.271 141.073 242 41 338.813 43.8945 c 8
 400.995 45.7536 433.486 77.5897 479 120 c 16
 523 161 561 294 538.914 387.545 c 0
 518.936 472.161 447.959 557.573 346 556.895 c 0
 278.368 556.446 172 518 135.234 439.745 c 1032
EndSplineSet
Fore
SplineSet
144.096 389.78 m 1
 139.833 346.833 138.251 299.951 144.396 260.375 c 0
 157.209 178 274.772 93.8281 345.756 93.8281 c 0
 345.896 93.8281 348.272 93.875 348.396 93.875 c 0
 389.834 95.1094 408.351 112.188 455.99 156.578 c 0
 473.615 173 506.476 257.094 506.476 327.047 c 0
 506.476 431.054 439.205 506.906 358.365 506.906 c 0
 358.256 506.906 357.459 506.891 357.334 506.891 c 0
 299.709 506.141 215.193 468.766 191.568 418.484 c 0
 182.731 399.669 163.651 388.927 144.096 389.78 c 1
161.069 537 m 1
 220.47 585.979 300.503 606.515 356.834 606.891 c 0
 356.959 606.891 358.084 606.906 358.209 606.906 c 0
 506.674 606.463 606.476 474.632 606.476 327.047 c 0
 606.476 232.922 577.787 133.391 524.178 83.4219 c 0
 480.584 42.8125 433.976 -3.60938 351.396 -6.07812 c 0
 351.256 -6.09375 345.896 -6.17188 345.756 -6.17188 c 0
 228.226 -6.17188 67.5996 103.516 45.584 245.016 c 0
 30.7949 340.069 48.1748 451.143 65.2559 530.328 c 0
 71.0684 557.312 97.6934 574.484 124.678 568.656 c 0
 142.045 564.913 155.351 552.539 161.069 537 c 1
EndSplineSet
Validated: 33
EndChar

StartChar: afii57682
Encoding: 52 1506 59
Width: 655
VWidth: 1000
Flags: W
HStem: -6.84375 99.9999<135.699 365.205>
VStem: 23.0938 100<446.827 589.387> 530.781 100<262.365 527.943>
LayerCount: 2
Back
SplineSet
557.934 555.44 m 16
 594 519 590.519 405.456 582.574 346 c 0
 564 207 501.311 116.237 375 66 c 16
 287 31 169 35 102.094 86.4004 c 1032
80.0938 545.76 m 16
 82 363 264.209 227.607 392.494 175.28 c 1032
EndSplineSet
Fore
SplineSet
379.189 125.671 m 1
 249 168 23.0938 325 23.0938 545.234 c 0
 23.0938 572.845 44.9688 595.469 72.5781 595.75 c 0
 100.172 596.047 122.797 573.875 123.094 546.281 c 0
 124.672 394.984 284.969 270.281 404.375 221.578 c 0
 428.654 211.68 440.952 184.838 433.196 160.266 c 1
 500.34 215.698 530.781 301.897 530.781 426.438 c 0
 530.781 468.642 526.908 508.668 515.391 520.266 c 0
 495.984 539.891 496.141 571.562 515.766 590.984 c 0
 535.375 610.391 567.062 610.234 586.469 590.609 c 0
 621.84 554.91 630.781 486.272 630.781 426.438 c 0
 630.781 220.404 548.393 83.929 386.484 19.5469 c 0
 342.141 1.90625 293.156 -6.84375 244.609 -6.84375 c 0
 180.375 -6.84375 115.078 8 64.6406 46.75 c 0
 42.75 63.5625 38.625 94.9688 55.4375 116.859 c 0
 72.2656 138.75 103.672 142.859 125.562 126.047 c 0
 151.656 106 196.203 93.1562 244.609 93.1562 c 0
 293.794 93.1562 342.993 107.614 379.189 125.671 c 1
EndSplineSet
Validated: 33
EndChar

StartChar: afii57683
Encoding: 53 1507 60
Width: 677
VWidth: 1000
Flags: W
HStem: 128 100<169.844 313.158> 513.408 100<141.876 433.645>
VStem: 36.0251 99.9999<263.888 494.064> 550.177 100<-309.441 361.31>
LayerCount: 2
Back
SplineSet
380 242 m 20
 344 214 304 178 234 178 c 12
 135.308 178 86.0251 254.853 86.0251 364.402 c 4
 86.0251 418.169 94 471 84 526 c 5
 161.709 550.284 254.55 563.408 342.578 563.408 c 4
 567.852 563.408 600.177 306.473 600.177 173.999 c 4
 600.177 44.6859 599.516 -19.1988 599.516 -168.85 c 4
 599.516 -199.548 598.579 -232.747 596 -268 c 1036
EndSplineSet
Fore
SplineSet
234 128 m 0
 98.0187 128 36.0251 238.375 36.0251 364.402 c 0
 36.0251 400.5 39.0379 433.192 39.0379 463.205 c 0
 39.0379 482.041 37.9468 499.784 34.8065 517.056 c 0
 30.0788 543.058 43.8605 565.841 69.0863 573.724 c 0
 152.636 599.833 249.569 613.408 342.578 613.408 c 0
 616.501 613.408 650.177 305.611 650.177 173.999 c 0
 650.177 44.4664 649.516 -19.3854 649.516 -168.85 c 0
 649.516 -200.566 648.549 -234.996 645.867 -271.649 c 0
 643.853 -299.175 619.878 -319.881 592.351 -317.867 c 0
 564.825 -315.853 544.119 -291.878 546.133 -264.351 c 0
 548.61 -230.498 549.516 -198.53 549.516 -168.85 c 0
 549.516 -19.0123 550.177 44.9053 550.177 173.999 c 0
 550.177 308.883 518.449 513.408 342.578 513.408 c 0
 274.168 513.408 201.901 504.809 138.397 489.233 c 1
 138.863 480.372 139.038 471.691 139.038 463.205 c 0
 139.038 427.095 136.025 394.4 136.025 364.402 c 0
 136.025 275.859 169.953 228 234 228 c 0
 285.398 228 310.359 251.178 349.303 281.468 c 0
 371.089 298.412 402.523 294.483 419.468 272.697 c 0
 436.412 250.911 432.483 219.477 410.697 202.532 c 0
 377.428 176.656 322.522 128 234 128 c 0
EndSplineSet
Validated: 33
EndChar

StartChar: afii57684
Encoding: 54 1508 61
Width: 616
VWidth: 1000
Flags: W
HStem: -6.85938 100<97.2397 429.608 429.829 437.134> 235.672 100<150.772 335.484> 509.562 100<197.326 402.806>
VStem: 38.5625 99.9995<348.538 452.174> 496.344 100<178.74 415.077>
LayerCount: 2
Back
SplineSet
137.4 502.17 m 16
 177.58 539.07 230.04 559.57 293.2 559.57 c 0
 473 559.57 544.349 430 544.349 308 c 0
 544.349 197.392 493.261 112.043 441.62 49.5303 c 8
 437.865 44.9834 432.756 46.3635 426.86 46.25 c 16
 310 44 137 33 80 72.4902 c 1032
90.6602 520.21 m 16
 86.5306 427.982 73.6851 352.436 132.48 308.65 c 0
 170.02 280.695 263 280 298.12 297.17 c 1032
EndSplineSet
Fore
SplineSet
139.16 452.174 m 1
 138.794 443.587 138.562 435.46 138.562 427.844 c 0
 138.562 382.524 144.319 361.379 164.344 348.75 c 0
 176.969 340.828 203.328 335.672 231.422 335.672 c 0
 254 335.672 275.625 340.844 278.156 342.094 c 0
 302.953 354.219 332.922 343.922 345.047 319.125 c 0
 357.156 294.328 346.875 264.375 322.078 252.25 c 0
 294.484 238.766 264.328 235.672 231.422 235.672 c 0
 184.328 235.672 168.547 231.109 104.609 268.547 c 1
 61.63 300.578 38.5625 349 38.5625 427.844 c 0
 38.5625 459.078 41.2812 490.469 42.7031 522.453 c 0
 44.6176 565.201 96.4204 585.363 126.932 556.604 c 1
 173.55 591.02 231.433 609.562 295.203 609.562 c 0
 508.562 609.562 596.344 450.891 596.344 308 c 0
 596.344 181.281 537.469 84.6406 482.172 17.6875 c 0
 475.049 9.05867 440.704 -3.75 429.609 -3.75 c 0
 429.578 -3.75 429.844 -3.73438 429.828 -3.73438 c 0
 384.797 -4.60938 329.906 -6.85938 275.828 -6.85938 c 0
 189.539 -6.85938 111 -5 53.5312 31.3906 c 0
 30.2124 46.1566 25.1875 78.2812 40.9062 100.969 c 0
 59.0777 127.196 91 125 112.422 112.375 c 0
 130.523 101.707 201.406 93.1406 275.828 93.1406 c 0
 323.97 93.1406 374.487 95.0762 419.04 96.0527 c 1
 465.31 148.265 496.344 221.836 496.344 308 c 0
 496.344 405.797 444.031 509.562 295.203 509.562 c 0
 242.953 509.562 203.984 493.594 173.219 465.344 c 0
 163.553 456.466 151.33 452.113 139.16 452.174 c 1
EndSplineSet
Validated: 33
EndChar
